<svg xmlns="http://www.w3.org/2000/svg" viewBox="0 0 34 34"><path d="M25.2 18.5v.5h.5v-.5h-.5zm0-9.8h.5v-.5h-.5v.5zm-.9 9.8h-.5v.5h.5v-.5zm0-9.8v-.5h-.5v.5h.5zM3.5.6V.1h-.4v.5h.4zm14.2 0l.3-.3-.1-.2h-.2v.5zm.2.1l.3-.3-.3.3zm7.3 8l.4.3.3-.3-.3-.3-.4.3zm-.7.6l-.3.3.3.3.3-.3-.3-.3zm-7.2-7.8l.3-.3-.1-.2h-.2v.5zm-12.8 0V1H4v.5h.5zm0 29H4v.5h.5v-.5zm16.6 0h.5V30h-.5v.5zm0 .9v.5h.5v-.5h-.5zm-17.6 0h-.4v.5h.5v-.5zm22.2-12.9V8.7h-.9v9.9h.9zm-1.4.5h.9v-.9h-.9v.9zm-.5-10.3v9.9h.9V8.7h-.9zm1.4-.5h-.9v.9h.9v-.9zM4 .1h-.5V1H4V.1zm13.5 0H4V1h13.5V.1zm.2 0h-.2V1h.2V.1zm.5.3l-.1-.2-.7.6.1.2.7-.6zm7.4 8l-7.4-8-.7.6 7.4 8 .7-.6zm-.7 1.3l.7-.7-.6-.7-.8.7.7.7zM17 1.8l7.2 7.8.7-.6-7.2-7.8-.7.6zM4.5 2h12.8V1H4.5v1zM5 30.5v-29H4v29h1zm16.1-.5H4.5v.9h16.6V30zm.5 1.4v-.9h-.9v.9h.9zM4 31.9h17.1V31H4v.9zm-.5 0H4V31h-.5v.9zm-.4-1v.5H4v-.5h-.9zM3.1 1v29.9H4V1h-.9zm0-.4V1H4V.6h-.9z"/><path class="st0" d="M25.3 33.9l-5.6-7.1h3.4v-6.4h4.2v6.4h3.6l-5.6 7.1zm-3.5-6.1l3.5 4.5 3.5-4.5h-2.5v-6.4h-2.2v6.4h-2.3z"/><path d="M9 11.4h10.7v1H9zm0 4.4h7.6v1H9zm0 3.8h10.7v1H9z"/></svg>