<svg width="36" height="36" fill="none" xmlns="http://www.w3.org/2000/svg"><path fill-rule="evenodd" clip-rule="evenodd" d="M18 36c9.941 0 18-8.059 18-18S27.941 0 18 0 0 8.059 0 18s8.059 18 18 18z" fill="url(#paint0_linear_901_148)"/><path d="M24.063 17.125a1.71 1.71 0 011.687 1.688v6.75c0 .949-.773 1.687-1.688 1.687H11.688a1.666 1.666 0 01-1.687-1.688v-6.75c0-.914.738-1.687 1.688-1.687h.843v-2.531c0-2.918 2.39-5.344 5.344-5.344 2.918 0 5.344 2.426 5.344 5.344v2.531h.843zm-4.782 5.906v-1.687a1.41 1.41 0 00-1.406-1.407c-.809 0-1.406.633-1.406 1.407v1.687c0 .809.597 1.407 1.406 1.407.773 0 1.406-.598 1.406-1.407zm1.125-5.906v-2.531c0-1.371-1.16-2.531-2.531-2.531a2.543 2.543 0 00-2.531 2.53v2.532h5.062z" fill="#fff"/><defs><linearGradient id="paint0_linear_901_148" x1=".5" y1="36" x2="36.5" y2="0" gradientUnits="userSpaceOnUse"><stop stop-color="#AC9233"/><stop offset="1" stop-color="#D9AB05"/></linearGradient></defs></svg>