<svg width="30" height="34" fill="none" xmlns="http://www.w3.org/2000/svg"><path d="M6.667 27h16.667v-3.333H6.667V27zm16.667-6.667H6.667V17h16.667v3.333zM6.667 13.667h6.667v-3.334H6.667v3.334z" fill="#0F0F0F"/><path fill-rule="evenodd" clip-rule="evenodd" d="M5 .333a5 5 0 00-5 5v23.334a5 5 0 005 5h20a5 5 0 005-5V12A11.667 11.667 0 0018.333.333H5zm0 3.334h11.667V12h10v16.667A1.667 1.667 0 0125 30.333H5a1.667 1.667 0 01-1.667-1.666V5.333A1.667 1.667 0 015 3.667zm15 .166a8.348 8.348 0 015.973 4.834H20V3.833z" fill="#0F0F0F"/></svg>