<svg xmlns="http://www.w3.org/2000/svg" viewBox="0 0 40 40"><path d="M29.5 13.5c.2.6.4 1.4.5 2.4 0 1.1.1 1.4.1 4.1 0 2.7 0 3.1-.1 4.1 0 1.1-.2 1.8-.5 2.4-.5 1.3-1.6 2.4-2.9 2.9-.6.2-1.4.4-2.4.5-1.1.1-1.5.1-4.2.1s-3.1 0-4.1-.1c-1.1 0-1.8-.2-2.4-.5-.7-.2-1.3-.6-1.8-1.2-.5-.5-.9-1.1-1.2-1.8-.2-.6-.4-1.4-.5-2.4 0-1.1-.1-1.4-.1-4.1 0-2.7 0-3.1.1-4.1 0-1.1.2-1.8.5-2.4.3-.7.6-1.3 1.2-1.8.5-.5 1.1-.9 1.8-1.2.6-.2 1.4-.4 2.4-.5 1.1 0 1.4-.1 4.1-.1 2.7 0 3.1 0 4.1.1 1.1 0 1.8.2 2.4.5.7.2 1.3.6 1.8 1.2s.9 1.2 1.2 1.9zm-1.7 12.4c.1-.4.3-.9.3-1.9 0-1.1.1-1.4.1-4 0-2.7 0-3-.1-4 0-1-.2-1.5-.3-1.9-.2-.4-.4-.8-.7-1.1-.3-.3-.7-.6-1.1-.7-.4-.1-.9-.3-1.9-.3-1.1 0-1.4-.1-4-.1-2.7 0-3 0-4 .1-1 0-1.5.2-1.9.3-.4.2-.8.4-1.1.7-.3.3-.6.7-.8 1.1-.1.4-.3.9-.3 1.9 0 1.1-.1 1.4-.1 4 0 2.7 0 3 .1 4 0 1 .2 1.5.3 1.9.2.4.4.8.7 1.1.3.3.7.6 1.1.7.4.1.9.3 1.9.3 1.1 0 1.4.1 4 .1 2.7 0 3 0 4-.1 1 0 1.5-.2 1.9-.3.9-.2 1.6-.9 1.9-1.8z"/><path d="M14.9 20c0-2.8 2.3-5.1 5.1-5.1s5.1 2.3 5.1 5.1-2.3 5.1-5.1 5.1-5.1-2.3-5.1-5.1zm1.8 0c0 1.8 1.5 3.3 3.3 3.3 1.8 0 3.3-1.5 3.3-3.3 0-1.8-1.5-3.3-3.3-3.3-1.8 0-3.3 1.5-3.3 3.3zm9.8-5.3c0 .7-.5 1.2-1.2 1.2s-1.2-.5-1.2-1.2.5-1.2 1.2-1.2 1.2.5 1.2 1.2z"/></svg>