<svg width="36" height="36" fill="none" xmlns="http://www.w3.org/2000/svg"><path fill-rule="evenodd" clip-rule="evenodd" d="M18 36c9.941 0 18-8.059 18-18S27.941 0 18 0 0 8.059 0 18s8.059 18 18 18z" fill="url(#paint0_linear_901_824)"/><path d="M16.328 25h-2.953A3.376 3.376 0 0110 21.625v-6.75a3.376 3.376 0 013.375-3.375h2.953c.211 0 .422.21.422.422v1.406c0 .246-.21.422-.422.422h-2.953c-.633 0-1.125.527-1.125 1.125v6.75a1.11 1.11 0 001.125 1.125h2.953c.211 0 .422.21.422.422v1.406c0 .246-.21.422-.422.422zm4.113-10.652a.81.81 0 010-1.196l.774-.773c.316-.352.844-.352 1.195 0l5.309 5.273c.351.352.351.88 0 1.196l-5.344 5.308c-.316.352-.844.317-1.16 0l-.774-.773a.81.81 0 010-1.195l2.743-2.532h-6.715c-.492 0-.844-.351-.844-.843v-1.125c0-.457.352-.844.844-.844h6.715l-2.743-2.496z" fill="#fff"/><defs><linearGradient id="paint0_linear_901_824" x1=".5" y1="36" x2="36.5" y2="0" gradientUnits="userSpaceOnUse"><stop stop-color="#AC3A33"/><stop offset="1" stop-color="#D91205"/></linearGradient></defs></svg>