<svg xmlns="http://www.w3.org/2000/svg" viewBox="0 0 40 40"><path d="M26.1 15c0 3.3-2.7 6.1-6.1 6.1-3.3 0-6-2.7-6.1-6.1 0-3.3 2.7-6.1 6.1-6.1s6.1 2.8 6.1 6.1zm-2.8 0c0-1.8-1.5-3.3-3.3-3.3s-3.3 1.5-3.3 3.3c0 1.8 1.5 3.3 3.3 3.3 1.8 0 3.3-1.5 3.3-3.3z"/><path d="M25.9 23.8c.7-.4 1-1.1 1-1.9 0-.6-.4-1.2-.9-1.5-.6-.3-1.3-.2-1.8.2-2.5 1.8-5.8 1.8-8.3 0-.5-.4-1.2-.5-1.8-.2-.6.3-.9.9-.9 1.5 0 .8.4 1.5 1 1.9.8.5 1.7 1 2.7 1.3.2 0 .3.1.5.1l-2.8 2.7c-.7.7-.7 1.8 0 2.6.7.7 1.9.7 2.6 0l2.8-2.9 2.8 2.9c.7.7 1.9.7 2.6 0 .7-.7.8-1.8 0-2.6l-2.8-2.7c.2 0 .3-.1.5-.1 1-.3 1.9-.7 2.8-1.3z"/></svg>