<svg width="36" height="36" fill="none" xmlns="http://www.w3.org/2000/svg"><path fill-rule="evenodd" clip-rule="evenodd" d="M18 36c9.941 0 18-8.059 18-18S27.941 0 18 0 0 8.059 0 18s8.059 18 18 18z" fill="url(#paint0_linear_901_818)"/><path d="M17.875 18.25a4.486 4.486 0 01-4.5-4.5c0-2.46 2.004-4.5 4.5-4.5 2.46 0 4.5 2.04 4.5 4.5 0 2.496-2.04 4.5-4.5 4.5zm3.129 1.125c2.601 0 4.746 2.145 4.746 4.746v1.442c0 .949-.773 1.687-1.688 1.687H11.688a1.666 1.666 0 01-1.687-1.688v-1.44c0-2.602 2.11-4.747 4.71-4.747h.599c.773.387 1.652.563 2.566.563.914 0 1.758-.176 2.531-.563h.598z" fill="#fff"/><defs><linearGradient id="paint0_linear_901_818" x1=".5" y1="36" x2="36.5" y2="0" gradientUnits="userSpaceOnUse"><stop stop-color="#6B934C"/><stop offset="1" stop-color="#88B42A"/></linearGradient></defs></svg>