<svg xmlns="http://www.w3.org/2000/svg" viewBox="0 0 40 40"><path d="M20 .5C9.2.5.5 9.2.5 20S9.2 39.5 20 39.5 39.5 30.8 39.5 20 30.8.5 20 .5zm10.1 33.2c-2.9 2-6.3 3.3-10.1 3.3s-7.2-1.3-10.1-3.3v-1.1c0-2.8 2.3-5 5-5 .9 0 2.2.9 5 .9 2.9 0 4.2-.9 5-.9 2.8 0 5 2.3 5 5v1.1zm2.4-2.2c-.6-3.7-3.7-6.5-7.5-6.5-1.6 0-2.4.9-5 .9s-3.4-.9-5-.9c-3.8 0-6.9 2.8-7.4 6.5C4.7 28.5 3 24.4 3 20c0-9.4 7.6-17 17-17s17 7.6 17 17c0 4.4-1.7 8.5-4.5 11.5zM20 9.3c-3.8 0-6.9 3.1-6.9 6.9s3.1 6.9 6.9 6.9 6.9-3.1 6.9-6.9-3.1-6.9-6.9-6.9zm0 11.3c-2.4 0-4.4-2-4.4-4.4s2-4.4 4.4-4.4 4.4 2 4.4 4.4-2 4.4-4.4 4.4z"/></svg>