<svg xmlns="http://www.w3.org/2000/svg" viewBox="0 0 40 40"><path d="M19.7 27.5h1.6s.5-.1.7-.3c.2-.2.2-.7.2-.7s0-2.1 1-2.4c1-.3 2.3 2 3.7 2.9 1 .7 1.8.5 1.8.5h3.7s1.9-.1 1-1.6c-.1-.1-.5-1.1-2.7-3-2.3-2.1-2-1.7.8-5.3 1.7-2.2 2.4-3.5 2.1-4-.2-.5-1.4-.4-1.4-.4h-4.1s-.3 0-.5.1-.4.4-.4.4-.7 1.7-1.5 3.1c-1.8 3-2.6 3.2-2.9 3-.7-.4-.5-1.7-.5-2.7 0-2.9.5-4.1-.9-4.4-.4-.1-.8-.2-1.9-.2-1.5 0-2.7 0-3.4.3-.5.2-.8.7-.6.7.3 0 .9.2 1.2.6.4.6.4 1.8.4 1.8s.2 3.4-.6 3.8c-.6.3-1.3-.3-2.9-3-.8-1.4-1.5-2.9-1.5-2.9s-.1-.3-.3-.4c-.3-.2-.6-.2-.6-.2H7.3s-.6 0-.8.3c-.2.2 0 .7 0 .7s3.1 6.9 6.5 10.4c3.1 3.1 6.7 2.9 6.7 2.9z"/></svg>