<svg width="366" height="27" viewBox="0 0 366 27" fill="none" xmlns="http://www.w3.org/2000/svg">
<g>
<path d="M13.5567 -7.2702e-05C15.4272 -0.0217948 17.2867 0.28708 19.0484 0.912141C20.6463 1.49107 22.1071 2.39078 23.3398 3.55522C24.5697 4.75214 25.5204 6.20264 26.1249 7.80443C27.4427 11.4858 27.4427 15.5062 26.1249 19.1876C25.5204 20.7894 24.5697 22.2399 23.3398 23.4368C22.1087 24.6015 20.6473 25.499 19.0484 26.0721C15.4913 27.299 11.622 27.299 8.06495 26.0721C6.46607 25.499 5.00464 24.6015 3.77356 23.4368C2.54365 22.2399 1.59295 20.7894 0.98848 19.1876C-0.329331 15.5062 -0.329331 11.4858 0.98848 7.80443C1.59295 6.20264 2.54365 4.75214 3.77356 3.55522C5.00629 2.39078 6.46709 1.49107 8.06495 0.912141C9.82668 0.28708 11.6862 -0.0217948 13.5567 -7.2702e-05ZM13.5567 1.40334C12.2233 1.37067 10.9076 1.71107 9.75955 2.38572C8.67612 3.04798 7.76923 3.95995 7.11568 5.0444C6.38111 6.23278 5.85084 7.53445 5.54661 8.89597C4.88756 11.9198 4.88756 15.0488 5.54661 18.0727C5.84425 19.4509 6.37479 20.769 7.11568 21.971C7.76923 23.0555 8.67612 23.9675 9.75955 24.6297C10.9202 25.2736 12.2274 25.6116 13.5567 25.6116C14.886 25.6116 16.1931 25.2736 17.3538 24.6297C18.4373 23.9675 19.3441 23.0555 19.9977 21.971C20.7386 20.769 21.2691 19.4509 21.5668 18.0727C22.2258 15.0488 22.2258 11.9198 21.5668 8.89597C21.2625 7.53445 20.7323 6.23278 19.9977 5.0444C19.3441 3.95995 18.4373 3.04798 17.3538 2.38572C16.2058 1.71107 14.89 1.37067 13.5567 1.40334Z" fill="#AC9233"/>
<path d="M30.1495 25.4329C31.0337 25.2985 31.9068 25.1004 32.762 24.8403C33.3343 24.6783 33.8416 24.3431 34.2134 23.8813C34.5705 23.3794 34.7895 22.7935 34.8489 22.1816C34.9555 21.2473 35.0026 20.3072 34.9901 19.367L35.1313 4.14785C34.8319 3.7618 34.4808 3.41817 34.0879 3.12648C33.7058 2.84403 33.2957 2.60108 32.864 2.40139C32.4418 2.20371 32.0067 2.03439 31.5617 1.8946L30.2201 1.48138V0.545773L32.0716 0.701705C32.6993 0.756282 33.319 0.779677 33.931 0.779677C35.5576 0.779677 37.158 0.701708 38.7323 0.545773C41.0807 3.78401 43.4631 6.93907 45.8794 10.011C48.2958 13.0829 50.6206 16.2795 52.8539 19.6009H52.9245V16.4277C52.9245 15.1568 52.9245 13.8314 52.8696 12.4591C52.8147 11.0869 52.7833 9.76149 52.7127 8.46723C52.6607 7.37362 52.5534 6.28329 52.391 5.20041C52.3283 4.6237 52.1664 4.06198 51.9125 3.53971C51.7091 3.12603 51.414 2.7635 51.0495 2.47935C50.6854 2.20012 50.2734 1.9888 49.8335 1.85563C49.3185 1.69963 48.7945 1.57465 48.2644 1.48138V0.545773L50.7514 0.701705C51.5908 0.756282 52.4146 0.779677 53.2462 0.779677C54.8937 0.779677 56.5281 0.701708 58.1495 0.545773V1.48138C57.4007 1.49995 56.6605 1.64496 55.9606 1.9102C55.4254 2.14355 54.9933 2.56181 54.7446 3.0875C54.4341 3.78764 54.2534 4.53778 54.2111 5.30177C54.1327 6.22178 54.0935 7.40688 54.0935 8.84147V26.7739H52.0066C51.3005 25.5732 50.5003 24.2945 49.6059 22.9379C48.7116 21.5813 47.7754 20.2195 46.7973 18.8524C45.8245 17.4802 44.836 16.1314 43.8318 14.8059C42.8276 13.4805 41.8705 12.2278 40.9604 11.0479C40.0346 9.87064 39.1952 8.79469 38.4185 7.8201C37.6418 6.84552 36.9828 6.03466 36.4336 5.41092V18.6653C36.4228 19.7302 36.4726 20.7949 36.5827 21.8542C36.6352 22.5269 36.8447 23.1783 37.1946 23.7566C37.5381 24.2403 38.027 24.6033 38.5911 24.7935C39.3975 25.0606 40.2238 25.264 41.0624 25.4017V26.3373C40.1916 26.2827 39.3364 26.2437 38.4891 26.2203C37.6418 26.197 36.7788 26.1814 35.908 26.1814C35.0372 26.1814 33.9545 26.1814 33.0131 26.2203C32.0716 26.2593 31.1067 26.2827 30.1182 26.3373L30.1495 25.4329Z" fill="#AC9233"/>
<path d="M60.2677 25.4329C60.9205 25.4059 61.5668 25.2932 62.1898 25.0976C62.6304 24.9526 63.018 24.6813 63.3039 24.3179C63.5766 23.9107 63.7511 23.4465 63.8138 22.9613C63.9024 22.3023 63.9443 21.638 63.9393 20.9731V6.09702C63.9427 5.45815 63.9007 4.81985 63.8138 4.18683C63.7493 3.69726 63.5751 3.22832 63.3039 2.81462C63.0207 2.43435 62.6342 2.14225 62.1898 1.97257C61.5726 1.75442 60.9228 1.64107 60.2677 1.63731V0.545773L63.8844 0.701705C65.0926 0.756282 66.3008 0.779677 67.5011 0.779677C69.7867 0.779677 72.0592 0.753683 74.3187 0.701705L81.2304 0.545773C81.2304 1.01358 81.2304 1.48138 81.2304 1.94918V3.36039C81.2304 4.14006 81.2304 4.96651 81.2304 5.74618C81.2515 6.46932 81.3355 7.18931 81.4815 7.89807L80.6969 8.05401C80.2825 6.32166 79.34 4.75871 77.9981 3.57869C76.7586 2.57552 74.962 2.07133 72.6084 2.06613H68.6858V11.5781H70.5216C71.1297 11.5784 71.7348 11.4918 72.3181 11.3208C72.9095 11.1667 73.466 10.9021 73.9578 10.5412C74.4955 10.1316 74.9462 9.62016 75.2837 9.03639C75.6964 8.3096 75.9828 7.51884 76.131 6.69737H76.8371C76.8371 7.60959 76.7821 8.5374 76.7507 9.473C76.7194 10.4086 76.6958 11.3364 76.6958 12.2486C76.6958 13.1608 76.6958 14.1198 76.7507 15.0477C76.8057 15.9755 76.8135 16.9111 76.8371 17.8467H76.131C75.9923 17.0041 75.7279 16.1868 75.3464 15.4219C75.0376 14.828 74.6168 14.2986 74.1069 13.8626C73.6366 13.4721 73.0885 13.1852 72.4986 13.0205C71.8624 12.847 71.2048 12.7631 70.5451 12.771H68.6622V24.3881C69.2764 24.5804 69.9065 24.7187 70.5451 24.8013C71.3127 24.8965 72.0859 24.9407 72.8595 24.9339C75.0869 24.9628 77.2723 24.3303 79.1357 23.1172C81.1753 21.6747 82.7984 19.7256 83.8429 17.4646L84.5098 18.0104C83.9214 19.3904 83.3644 20.7782 82.8309 22.1582C82.2974 23.5383 81.8424 24.9651 81.4423 26.423C79.5986 26.3685 77.7785 26.3295 75.9505 26.3061C74.1226 26.2827 72.3182 26.2671 70.4588 26.2671H67.1716C66.136 26.2671 65.1789 26.2671 64.2924 26.2671C63.4059 26.2671 62.6213 26.2671 61.9388 26.3217C61.2562 26.3763 60.6757 26.3763 60.2285 26.3997L60.2677 25.4329Z" fill="#AC9233"/>
<path d="M114.314 8.32689C114.084 7.37128 113.697 6.45987 113.169 5.62923C112.658 4.82075 112.041 4.08391 111.333 3.43836C110.658 2.82663 109.89 2.32411 109.058 1.94918C108.268 1.59561 107.413 1.40972 106.547 1.40342C105.565 1.37515 104.606 1.70205 103.849 2.32342C103.465 2.66987 103.165 3.09822 102.972 3.57628C102.78 4.05433 102.698 4.56965 102.734 5.08347C102.728 5.52839 102.814 5.96989 102.986 6.3804C103.159 6.7909 103.415 7.16158 103.739 7.46926C104.49 8.17958 105.341 8.77831 106.265 9.2469C107.277 9.78488 108.367 10.3228 109.529 10.8764C110.687 11.4148 111.784 12.0761 112.8 12.849C113.802 13.611 114.657 14.5459 115.326 15.609C116.032 16.8195 116.38 18.203 116.33 19.6009C116.344 20.6478 116.138 21.686 115.726 22.6494C115.343 23.5442 114.764 24.3432 114.032 24.9885C113.257 25.6514 112.358 26.1572 111.388 26.4776C110.271 26.8397 109.102 27.0162 107.928 27C107.335 27.0009 106.744 26.9434 106.163 26.8285C105.574 26.7115 104.986 26.579 104.413 26.4386C103.841 26.2983 103.252 26.158 102.664 26.041C102.083 25.9261 101.491 25.8686 100.899 25.8695C100.774 25.873 100.65 25.8914 100.53 25.9241L100.036 26.0644L99.5257 26.2203C99.3903 26.2599 99.259 26.3121 99.1335 26.3763C98.9452 24.9157 98.7464 23.4421 98.5372 21.9555C98.328 20.469 98.0665 18.9694 97.7527 17.4568H98.5372C98.8148 18.4659 99.2433 19.4278 99.8082 20.3104C100.384 21.237 101.077 22.086 101.871 22.8366C102.631 23.5547 103.496 24.154 104.437 24.6142C105.279 25.0392 106.207 25.266 107.151 25.2769C107.862 25.2845 108.572 25.2191 109.27 25.082C109.855 24.9743 110.414 24.7573 110.917 24.4427C111.373 24.1379 111.738 23.7181 111.976 23.2264C112.241 22.6168 112.367 21.9565 112.345 21.2928C112.373 20.2989 112.003 19.3344 111.317 18.6107C110.564 17.839 109.703 17.1798 108.76 16.6538C107.74 16.069 106.626 15.4999 105.441 14.9541C104.285 14.42 103.175 13.7915 102.123 13.0751C101.129 12.3964 100.263 11.5492 99.565 10.5723C98.8562 9.52053 98.4968 8.27448 98.5372 7.00924C98.5372 4.55588 99.2093 2.77564 100.553 1.6685C101.898 0.56137 103.932 0.00780007 106.657 0.00780007C107.343 0.00484534 108.029 0.062246 108.705 0.179329C109.364 0.296279 109.991 0.436619 110.58 0.592553C111.168 0.748487 111.717 0.88103 112.235 1.00578C112.711 1.11645 113.198 1.17398 113.687 1.17731H114.95C114.95 1.62172 114.903 2.03494 114.879 2.43258C114.855 2.83021 114.84 3.21225 114.84 3.64107C114.84 4.42074 114.84 5.20041 114.934 5.98008C115.028 6.75975 115.044 7.53942 115.091 8.31909L114.314 8.32689Z" fill="#AC9233"/>
<path d="M120.175 25.4329C120.767 25.394 121.356 25.3211 121.94 25.2146C122.362 25.1462 122.755 24.9565 123.07 24.6688C123.374 24.3529 123.583 23.9586 123.674 23.5305C123.805 22.8945 123.863 22.2458 123.846 21.5969V6.33873C123.846 5.39533 123.846 4.63904 123.76 4.06208C123.728 3.57614 123.571 3.10643 123.305 2.69766C123.023 2.33678 122.641 2.06574 122.207 1.91799C121.57 1.70596 120.913 1.56221 120.245 1.48918V0.553566C122.269 0.7095 124.306 0.787469 126.357 0.787469C128.407 0.787469 130.431 0.7095 132.429 0.553566V1.48918C131.721 1.5624 131.022 1.70605 130.342 1.91799C129.887 2.05904 129.483 2.33019 129.181 2.69766C128.898 3.10091 128.727 3.57178 128.687 4.06208C128.606 4.81818 128.569 5.57837 128.577 6.33873V11.5001H140.298V6.33873C140.308 5.57854 140.274 4.81838 140.196 4.06208C140.153 3.57479 139.989 3.10581 139.717 2.69766C139.43 2.32927 139.035 2.0572 138.588 1.91799C137.904 1.70195 137.199 1.55823 136.485 1.48918V0.553566C138.577 0.7095 140.648 0.787469 142.699 0.787469C144.749 0.787469 146.773 0.7095 148.771 0.553566V1.48918C148.075 1.55919 147.388 1.70294 146.723 1.91799C146.283 2.06303 145.895 2.33429 145.609 2.69766C145.341 3.10656 145.179 3.57548 145.138 4.06208C145.057 4.81818 145.021 5.57837 145.029 6.33873V21.5969C145.014 22.2462 145.074 22.8949 145.209 23.5305C145.297 23.9577 145.504 24.352 145.805 24.6688C146.125 24.9581 146.523 25.1478 146.951 25.2146C147.553 25.3212 148.16 25.3941 148.771 25.4329V26.3685C147.759 26.3139 146.739 26.2749 145.719 26.2515C144.699 26.2281 143.679 26.2125 142.667 26.2125C141.655 26.2125 140.643 26.2125 139.631 26.2515C138.619 26.2905 137.607 26.3139 136.595 26.3685V25.4329C137.187 25.394 137.776 25.3211 138.36 25.2146C138.786 25.1428 139.183 24.9537 139.505 24.6688C139.819 24.3575 140.035 23.9618 140.125 23.5305C140.256 22.8945 140.314 22.2458 140.298 21.5969V13.1453H128.577V21.5969C128.562 22.2462 128.623 22.8949 128.757 23.5305C128.845 23.9611 129.058 24.3568 129.369 24.6688C129.7 24.9555 130.105 25.1445 130.538 25.2146C131.127 25.3205 131.722 25.3934 132.319 25.4329V26.3685C131.284 26.3139 130.256 26.2749 129.228 26.2515C128.2 26.2281 127.18 26.2125 126.145 26.2125C125.109 26.2125 124.16 26.2125 123.156 26.2515C122.152 26.2905 121.163 26.3139 120.175 26.3685V25.4329Z" fill="#AC9233"/>
<path d="M165.897 8.29762e-06C167.768 -0.0227112 169.627 0.286192 171.389 0.912222C172.988 1.48912 174.449 2.38907 175.68 3.55531C176.922 4.74912 177.883 6.19985 178.497 7.80451C179.815 11.4859 179.815 15.5063 178.497 19.1877C177.89 20.7902 176.937 22.2408 175.704 23.4369C174.474 24.6032 173.012 25.5009 171.412 26.0722C167.856 27.3009 163.986 27.3009 160.429 26.0722C158.829 25.5009 157.367 24.6032 156.138 23.4369C154.908 22.2379 153.955 20.7882 153.345 19.1877C152.027 15.5063 152.027 11.4859 153.345 7.80451C153.955 6.20406 154.908 4.75433 156.138 3.55531C157.369 2.38907 158.83 1.48912 160.429 0.912222C162.183 0.287965 164.034 -0.0209275 165.897 8.29762e-06ZM165.897 1.40342C164.563 1.36778 163.247 1.70839 162.1 2.3858C161.014 3.0478 160.105 3.95969 159.448 5.04448C158.72 6.2361 158.19 7.53667 157.879 8.89605C157.231 11.921 157.231 15.0478 157.879 18.0728C158.184 19.4489 158.714 20.7659 159.448 21.9711C160.105 23.0559 161.014 23.9678 162.1 24.6298C163.259 25.2737 164.565 25.6118 165.893 25.6118C167.221 25.6118 168.527 25.2737 169.686 24.6298C170.772 23.9678 171.682 23.0559 172.338 21.9711C173.076 20.7675 173.606 19.4499 173.907 18.0728C174.566 15.0489 174.566 11.9199 173.907 8.89605C173.6 7.53559 173.07 6.23447 172.338 5.04448C171.682 3.95969 170.772 3.0478 169.686 2.3858C168.542 1.70982 167.228 1.36926 165.897 1.40342Z" fill="#AC9233"/>
<path d="M187.252 6.01907C187.263 5.29916 187.216 4.57952 187.111 3.86717C187.048 3.38997 186.858 2.93799 186.562 2.55733C186.26 2.20903 185.862 1.95682 185.416 1.83223C184.784 1.65026 184.135 1.53271 183.479 1.48138V0.545773C184.161 0.60035 184.946 0.647128 185.832 0.701705C186.719 0.756282 187.731 0.779677 188.837 0.779677C189.951 0.78057 191.065 0.715482 192.171 0.584759C193.314 0.45199 194.464 0.386903 195.615 0.389842C196.702 0.387124 197.784 0.544769 198.824 0.857637C199.824 1.14983 200.758 1.62879 201.578 2.26885C202.395 2.9129 203.052 3.73436 203.5 4.67023C204.007 5.75336 204.256 6.93774 204.229 8.13197C204.263 9.17542 204.048 10.212 203.602 11.1571C203.183 11.9835 202.592 12.7118 201.868 13.2934C201.145 13.8661 200.32 14.2974 199.436 14.5643C198.525 14.8388 197.579 14.978 196.627 14.9775C195.839 14.9745 195.052 14.9093 194.274 14.7826C193.488 14.6508 192.722 14.4257 191.991 14.112V20.9654C191.983 21.6894 192.02 22.4132 192.101 23.1328C192.142 23.6181 192.313 24.0836 192.595 24.4817C192.885 24.8618 193.293 25.136 193.756 25.2613C194.46 25.4559 195.184 25.5761 195.913 25.62V26.3997C194.901 26.3451 193.889 26.3061 192.893 26.2827C191.897 26.2593 190.885 26.2437 189.872 26.2437C188.86 26.2437 187.723 26.2437 186.664 26.2827C185.605 26.3217 184.546 26.3451 183.526 26.3997V25.62C184.224 25.5746 184.916 25.4544 185.589 25.2613C186.044 25.1381 186.443 24.8628 186.719 24.4817C186.989 24.0788 187.153 23.6151 187.197 23.1328C187.274 22.413 187.309 21.6892 187.299 20.9654L187.252 6.01907ZM191.959 12.9114C192.376 13.1052 192.809 13.2618 193.254 13.3792C193.706 13.5067 194.173 13.5723 194.642 13.5741C195.338 13.6173 196.033 13.4882 196.666 13.1983C197.298 12.9084 197.849 12.4669 198.267 11.9134C199.114 10.6749 199.54 9.19956 199.483 7.70316C199.489 6.91656 199.404 6.13188 199.232 5.36414C199.087 4.69592 198.821 4.05933 198.447 3.48514C198.1 2.95536 197.622 2.5231 197.059 2.22987C196.407 1.92478 195.692 1.77781 194.972 1.80104C194.445 1.79927 193.919 1.85153 193.403 1.95698C192.904 2.06593 192.418 2.22529 191.951 2.43258L191.959 12.9114Z" fill="#AC9233"/>
<path d="M217.229 0.545773L219.543 0.701705C220.328 0.756282 221.073 0.779677 221.85 0.779677C223.754 0.779677 225.66 0.701708 227.569 0.545773V1.48138C227.263 1.48138 226.965 1.48138 226.667 1.48138C226.394 1.51204 226.128 1.59127 225.882 1.71528C225.635 1.8432 225.427 2.03428 225.278 2.26885C225.109 2.57906 225.03 2.93009 225.051 3.28241C225.119 3.62015 225.208 3.95343 225.318 4.28039C225.49 4.86514 225.726 5.62144 226.024 6.53365C226.322 7.44587 226.651 8.47503 227.028 9.65233L228.181 13.1764C228.568 14.3771 228.95 15.557 229.327 16.7161C229.703 17.8779 230.033 18.9382 230.315 19.905H230.386L234.199 8.98961C233.676 7.36789 233.228 6.08924 232.857 5.15363C232.569 4.39647 232.209 3.66812 231.782 2.97834C231.513 2.54491 231.141 2.18354 230.7 1.92579C230.265 1.71244 229.803 1.56024 229.327 1.47358V0.537981C231.068 0.693915 232.786 0.771873 234.481 0.771873C235.469 0.771873 236.458 0.77188 237.462 0.693913L240.443 0.537981V1.47358L239.455 1.57494C239.092 1.6119 238.736 1.69576 238.396 1.82443C238.075 1.95014 237.786 2.14444 237.548 2.39359C237.299 2.68013 237.172 3.05234 237.195 3.43055C237.255 3.92825 237.363 4.41909 237.517 4.89634C237.729 5.67601 237.996 6.59601 238.302 7.67976C238.608 8.7635 239 9.92521 239.416 11.1571L240.616 14.7826C241 15.9521 241.401 17.0124 241.714 17.9714C242.028 18.9304 242.303 19.6477 242.499 20.1389L243.189 18.3223L244.264 15.4219C244.664 14.3459 245.049 13.192 245.504 11.9835C245.959 10.7751 246.288 9.64453 246.665 8.5374C247.041 7.43027 247.308 6.48686 247.536 5.64481C247.712 5.05044 247.823 4.43866 247.865 3.82039C247.886 3.4219 247.782 3.02671 247.567 2.68987C247.364 2.40239 247.095 2.16716 246.782 2.00375C246.485 1.8352 246.166 1.70921 245.833 1.62952C245.531 1.55871 245.224 1.50664 244.915 1.47358V0.537981L247.12 0.693913C247.834 0.74849 248.571 0.771873 249.324 0.771873C250.077 0.771873 250.682 0.77188 251.356 0.693913L253.388 0.537981V1.47358C252.902 1.5303 252.426 1.65634 251.976 1.84782C251.606 2.01321 251.271 2.24592 250.988 2.53394C250.684 2.83173 250.42 3.16715 250.203 3.53191C249.946 3.96741 249.715 4.41782 249.513 4.88074C249.277 5.40312 248.948 6.18279 248.524 7.21975C248.1 8.25671 247.63 9.45741 247.112 10.7984L245.488 15.0554C244.918 16.5628 244.363 18.0364 243.825 19.4762C243.286 20.916 242.8 22.2726 242.366 23.5461C241.918 24.8169 241.581 25.8851 241.267 26.6647H240.035L234.81 10.7439C233.895 13.4571 232.922 16.1158 231.892 18.7199C230.862 21.324 229.844 24.0009 228.84 26.7505H227.781L220.901 5.46549C220.736 4.91972 220.556 4.41294 220.367 3.90615C220.196 3.46543 219.964 3.05075 219.677 2.67427C219.413 2.32568 219.075 2.03836 218.688 1.83223C218.233 1.61172 217.735 1.49202 217.229 1.48138V0.545773Z" fill="#AC9233"/>
<path d="M268.985 6.46932e-06C270.855 -0.0217156 272.715 0.287159 274.476 0.91222C276.074 1.49115 277.535 2.39085 278.768 3.5553C279.998 4.75222 280.948 6.20271 281.553 7.80451C282.871 11.4859 282.871 15.5063 281.553 19.1877C280.948 20.7895 279.998 22.24 278.768 23.4369C277.537 24.6016 276.075 25.499 274.476 26.0722C270.919 27.299 267.05 27.299 263.493 26.0722C261.894 25.499 260.433 24.6016 259.202 23.4369C257.972 22.24 257.021 20.7895 256.417 19.1877C255.099 15.5063 255.099 11.4859 256.417 7.80451C257.021 6.20271 257.972 4.75222 259.202 3.5553C260.434 2.39085 261.895 1.49115 263.493 0.91222C265.255 0.287159 267.114 -0.0217156 268.985 6.46932e-06ZM268.985 1.40342C267.651 1.37075 266.336 1.71115 265.188 2.3858C264.104 3.04805 263.197 3.96002 262.544 5.04448C261.809 6.23286 261.279 7.53453 260.975 8.89605C260.316 11.9199 260.316 15.0489 260.975 18.0728C261.272 19.451 261.803 20.7691 262.544 21.9711C263.197 23.0556 264.104 23.9675 265.188 24.6298C266.348 25.2737 267.655 25.6117 268.985 25.6117C270.314 25.6117 271.621 25.2737 272.782 24.6298C273.865 23.9675 274.772 23.0556 275.426 21.9711C276.167 20.7691 276.697 19.451 276.995 18.0728C277.654 15.0489 277.654 11.9199 276.995 8.89605C276.691 7.53453 276.16 6.23286 275.426 5.04448C274.772 3.96002 273.865 3.04805 272.782 2.3858C271.634 1.71115 270.318 1.37075 268.985 1.40342Z" fill="#AC9233"/>
<path d="M286.284 0.623744C287.154 0.678321 288.002 0.7173 288.841 0.74069C289.681 0.76408 290.622 0.779676 291.681 0.779676C292.952 0.779676 294.223 0.740685 295.494 0.662718C296.765 0.584751 298.099 0.545772 299.487 0.545772C300.616 0.528843 301.737 0.727352 302.79 1.13053C303.725 1.49921 304.576 2.05068 305.293 2.75224C305.973 3.443 306.506 4.2622 306.862 5.16142C307.229 6.10879 307.413 7.11671 307.403 8.13197C307.42 8.95266 307.285 9.76943 307.003 10.5412C306.748 11.2054 306.37 11.8163 305.889 12.3422C305.413 12.858 304.85 13.288 304.226 13.613C303.569 13.9595 302.87 14.2215 302.147 14.3927C302.644 15.2815 303.256 16.3211 303.983 17.5114C304.718 18.7319 305.525 19.9086 306.399 21.0355C307.239 22.1281 308.191 23.1314 309.239 24.0295C310.128 24.8257 311.209 25.3792 312.377 25.6356V26.3373C311.695 26.2827 311.036 26.2437 310.384 26.2203C309.733 26.1969 309.074 26.1814 308.392 26.1814C307.709 26.1814 307.215 26.1814 306.627 26.2203C306.038 26.2593 305.45 26.2827 304.861 26.3373C301.888 22.8332 299.351 18.9849 297.306 14.8761C296.906 14.8215 296.451 14.7436 295.949 14.6344C295.533 14.5723 295.137 14.4119 294.796 14.1666V20.942C294.788 21.6604 294.82 22.3788 294.89 23.0938C294.917 23.5566 295.075 24.0024 295.345 24.3803C295.622 24.7158 295.998 24.956 296.42 25.0664C297.056 25.2387 297.708 25.351 298.365 25.4017V26.3373C297.581 26.2827 296.639 26.2437 295.667 26.2203C294.694 26.1969 293.69 26.1814 292.678 26.1814C291.665 26.1814 290.528 26.1814 289.469 26.2203C288.41 26.2593 287.351 26.2827 286.292 26.3373V25.4017C286.988 25.3507 287.678 25.2385 288.355 25.0664C288.796 24.9641 289.192 24.7235 289.484 24.3803C289.76 24.0032 289.925 23.5581 289.963 23.0938C290.041 22.3792 290.075 21.6606 290.065 20.942V6.09702C290.072 5.43025 290.038 4.76367 289.963 4.10107C289.913 3.6153 289.749 3.14795 289.484 2.73665C289.204 2.34766 288.809 2.05375 288.355 1.8946C287.689 1.66445 286.995 1.52543 286.292 1.48137L286.284 0.623744ZM294.788 12.7164C295.513 13.0978 296.321 13.2985 297.142 13.3012C297.835 13.3306 298.527 13.217 299.173 12.9674C299.82 12.7178 300.408 12.3376 300.899 11.851C301.408 11.2759 301.796 10.6062 302.041 9.88067C302.286 9.15518 302.383 8.38847 302.327 7.62518C302.334 6.87652 302.22 6.13161 301.99 5.41872C301.79 4.7614 301.462 4.14949 301.025 3.61768C300.611 3.11514 300.091 2.70811 299.503 2.42478C298.887 2.12876 298.21 1.97928 297.526 1.98817C297.067 1.99015 296.609 2.01617 296.153 2.06613C295.679 2.12592 295.215 2.24647 294.772 2.42478L294.788 12.7164Z" fill="#AC9233"/>
<path d="M316.967 5.27838C316.986 4.67984 316.895 4.08284 316.7 3.51632C316.544 3.10255 316.288 2.73315 315.955 2.44038C315.621 2.15493 315.231 1.94242 314.809 1.81664C314.316 1.65994 313.809 1.54773 313.295 1.48138V0.545773C315.405 0.701708 317.539 0.779677 319.681 0.779677C321.823 0.779677 324.02 0.701708 326.208 0.545773V1.48138C325.661 1.56094 325.119 1.6729 324.585 1.81664C324.073 1.94607 323.585 2.15669 323.141 2.44038C322.704 2.71232 322.337 3.08046 322.066 3.51632C321.776 4.0572 321.637 4.66595 321.666 5.27838V24.6064C322.113 24.7349 322.574 24.8082 323.039 24.8247C323.627 24.8637 324.263 24.8793 324.945 24.8793C326.113 24.8998 327.278 24.7554 328.405 24.4505C329.377 24.1729 330.287 23.7152 331.088 23.1017C331.926 22.4388 332.654 21.6496 333.246 20.7626C333.943 19.7235 334.557 18.6311 335.082 17.4958L335.96 17.9246C335.366 19.2744 334.843 20.6537 334.391 22.0569C333.936 23.4447 333.544 24.8793 333.206 26.3373C331.59 26.2853 329.961 26.2463 328.319 26.2203C326.677 26.1943 325.047 26.1814 323.431 26.1814C321.737 26.1814 320.037 26.1943 318.332 26.2203C316.621 26.2203 314.927 26.2827 313.224 26.3373V25.4017C313.686 25.3999 314.147 25.3739 314.605 25.3237C315.026 25.2775 315.434 25.1504 315.806 24.9495C316.161 24.7522 316.454 24.4607 316.653 24.1074C316.888 23.6471 316.999 23.134 316.975 22.6182L316.967 5.27838Z" fill="#AC9233"/>
<path d="M338.18 25.2691C338.86 25.222 339.533 25.1044 340.189 24.9183C340.638 24.7896 341.03 24.515 341.303 24.1386C341.576 23.7373 341.741 23.2728 341.781 22.7898C341.862 22.0675 341.899 21.3411 341.891 20.6145V5.98008C341.899 5.25605 341.862 4.53224 341.781 3.8126C341.741 3.32961 341.576 2.86509 341.303 2.46377C341.027 2.08312 340.628 1.80793 340.173 1.6841C339.499 1.49803 338.808 1.38047 338.11 1.33324V0.397634L340.354 0.631538C341.096 0.70958 341.843 0.748613 342.59 0.748483C344.057 0.748483 345.571 0.68611 347.148 0.553566C348.725 0.421022 350.592 0.358648 352.757 0.358648C354.393 0.361977 356.014 0.6605 357.543 1.23968C359.126 1.82144 360.573 2.71818 361.795 3.87497C363.093 5.11313 364.129 6.59787 364.839 8.24112C365.649 10.1519 366.044 12.2107 366 14.2836C366.041 16.1516 365.699 18.0084 364.996 19.7413C364.386 21.1935 363.455 22.4911 362.273 23.5383C361.131 24.5315 359.796 25.2824 358.351 25.7447C356.817 26.2345 355.215 26.4793 353.604 26.4698C352.639 26.4698 351.8 26.4698 351.102 26.4308C350.403 26.3919 349.69 26.3763 348.999 26.3373L346.787 26.2203C346.002 26.2203 345.076 26.158 343.97 26.158C342.723 26.158 341.617 26.158 340.722 26.1969C339.828 26.2359 338.965 26.2593 338.212 26.3139L338.18 25.2691ZM346.614 23.164C346.611 23.3387 346.649 23.5117 346.724 23.6698C346.798 23.8279 346.909 23.9669 347.046 24.0762C347.375 24.351 347.757 24.5577 348.168 24.6844C348.703 24.8554 349.255 24.9678 349.815 25.0196C350.464 25.0832 351.116 25.1145 351.769 25.1132C353.061 25.1309 354.345 24.9006 355.55 24.4349C356.667 23.9824 357.66 23.2714 358.445 22.361C359.298 21.3328 359.924 20.1373 360.281 18.8524C360.732 17.236 360.946 15.5632 360.916 13.8859C360.934 12.2492 360.701 10.6193 360.226 9.05198C359.814 7.66124 359.137 6.36179 358.233 5.2238C357.376 4.1516 356.284 3.28767 355.04 2.69766C353.697 2.07827 352.229 1.76908 350.749 1.79325C350.053 1.79359 349.358 1.84571 348.67 1.94918C347.974 2.05943 347.287 2.21836 346.614 2.42478V23.164Z" fill="#AC9233"/>
</g>
</svg>
