<svg width="29" height="25" viewBox="0 0 29 25" xmlns="http://www.w3.org/2000/svg">
  <path fill-rule="evenodd" clip-rule="evenodd" d="M5.39 7.82003L11.86 1.35003C12.1679 1.0269 12.6267 0.895923 13.0588 1.00781C13.4909 1.11969 13.8285 1.45688 13.9408 1.88884C14.0532 2.32081 13.9228 2.77975 13.6 3.08803L8.87 7.82003H5.39ZM20.07 7.82003H23.54L17.08 1.35003C16.5969 0.888643 15.8339 0.89719 15.3612 1.36928C14.8886 1.84138 14.8792 2.60441 15.34 3.08803L20.07 7.82003ZM0 9.55203V12.361H0.78C1.42272 12.3611 2.00903 12.728 2.29 13.306L7.54 24.038H21.42L26.65 13.308C26.9308 12.7295 27.517 12.3619 28.16 12.361H28.93V9.55203H0Z"/>
</svg>
