<svg width="36" height="36" viewBox="0 0 36 36" fill="none" xmlns="http://www.w3.org/2000/svg">
<path fill-rule="evenodd" clip-rule="evenodd" d="M18 36C27.9411 36 36 27.9411 36 18C36 8.05887 27.9411 0 18 0C8.05887 0 0 8.05887 0 18C0 27.9411 8.05887 36 18 36Z" fill="url(#paint0_linear_901_148)"/>
<path d="M24.0625 17.125C24.9766 17.125 25.75 17.8984 25.75 18.8125V25.5625C25.75 26.5117 24.9766 27.25 24.0625 27.25H11.6875C10.7383 27.25 10 26.5117 10 25.5625V18.8125C10 17.8984 10.7383 17.125 11.6875 17.125H12.5312V14.5938C12.5312 11.6758 14.9219 9.25 17.875 9.25C20.793 9.25 23.2188 11.6758 23.2188 14.5938V17.125H24.0625ZM19.2812 23.0312V21.3438C19.2812 20.5703 18.6484 19.9375 17.875 19.9375C17.0664 19.9375 16.4688 20.5703 16.4688 21.3438V23.0312C16.4688 23.8398 17.0664 24.4375 17.875 24.4375C18.6484 24.4375 19.2812 23.8398 19.2812 23.0312ZM20.4062 17.125V14.5938C20.4062 13.2227 19.2461 12.0625 17.875 12.0625C16.4688 12.0625 15.3438 13.2227 15.3438 14.5938V17.125H20.4062Z" fill="white"/>
<defs>
<linearGradient id="paint0_linear_901_148" x1="0.5" y1="36" x2="36.5" y2="-2.17929e-07" gradientUnits="userSpaceOnUse">
<stop stop-color="#AC9233"/>
<stop offset="1" stop-color="#D9AB05"/>
</linearGradient>
</defs>
</svg>
