<svg width="30" height="34" viewBox="0 0 30 34" fill="none" xmlns="http://www.w3.org/2000/svg">
<path d="M6.66699 27H23.3337V23.6667H6.66699V27ZM23.3337 20.3333H6.66699V17H23.3337V20.3333ZM6.66699 13.6667H13.3337V10.3333H6.66699V13.6667Z" fill="#0F0F0F"/>
<path fill-rule="evenodd" clip-rule="evenodd" d="M5 0.333328C3.67392 0.333328 2.40215 0.860113 1.46447 1.79779C0.526784 2.73548 0 4.00725 0 5.33333V28.6667C0 29.9927 0.526784 31.2645 1.46447 32.2022C2.40215 33.1399 3.67392 33.6667 5 33.6667H25C26.3261 33.6667 27.5979 33.1399 28.5355 32.2022C29.4732 31.2645 30 29.9927 30 28.6667V12C30 8.9058 28.7708 5.93834 26.5829 3.75042C24.395 1.56249 21.4275 0.333328 18.3333 0.333328H5ZM5 3.66666H16.6667V12H26.6667V28.6667C26.6667 29.1087 26.4911 29.5326 26.1785 29.8452C25.866 30.1577 25.442 30.3333 25 30.3333H5C4.55797 30.3333 4.13405 30.1577 3.82149 29.8452C3.50893 29.5326 3.33333 29.1087 3.33333 28.6667V5.33333C3.33333 4.8913 3.50893 4.46738 3.82149 4.15482C4.13405 3.84226 4.55797 3.66666 5 3.66666ZM20 3.83333C21.31 4.1017 22.5363 4.68081 23.5758 5.52192C24.6153 6.36303 25.4375 7.44153 25.9733 8.66666H20V3.83333Z" fill="#0F0F0F"/>
</svg>
