<svg xmlns="http://www.w3.org/2000/svg" viewBox="0 0 40 40">
	<g>
		<path d="M29.5,13.5c0.2,0.6,0.4,1.4,0.5,2.4c0,1.1,0.1,1.4,0.1,4.1c0,2.7,0,3.1-0.1,4.1c0,1.1-0.2,1.8-0.5,2.4c-0.5,1.3-1.6,2.4-2.9,2.9c-0.6,0.2-1.4,0.4-2.4,0.5C23.1,30,22.7,30,20,30c-2.7,0-3.1,0-4.1-0.1c-1.1,0-1.8-0.2-2.4-0.5c-0.7-0.2-1.3-0.6-1.8-1.2c-0.5-0.5-0.9-1.1-1.2-1.8c-0.2-0.6-0.4-1.4-0.5-2.4c0-1.1-0.1-1.4-0.1-4.1c0-2.7,0-3.1,0.1-4.1c0-1.1,0.2-1.8,0.5-2.4c0.3-0.7,0.6-1.3,1.2-1.8c0.5-0.5,1.1-0.9,1.8-1.2c0.6-0.2,1.4-0.4,2.4-0.5c1.1,0,1.4-0.1,4.1-0.1c2.7,0,3.1,0,4.1,0.1c1.1,0,1.8,0.2,2.4,0.5c0.7,0.2,1.3,0.6,1.8,1.2C28.8,12.2,29.2,12.8,29.5,13.5z M27.8,25.9c0.1-0.4,0.3-0.9,0.3-1.9c0-1.1,0.1-1.4,0.1-4c0-2.7,0-3-0.1-4c0-1-0.2-1.5-0.3-1.9c-0.2-0.4-0.4-0.8-0.7-1.1c-0.3-0.3-0.7-0.6-1.1-0.7c-0.4-0.1-0.9-0.3-1.9-0.3c-1.1,0-1.4-0.1-4-0.1c-2.7,0-3,0-4,0.1c-1,0-1.5,0.2-1.9,0.3c-0.4,0.2-0.8,0.4-1.1,0.7c-0.3,0.3-0.6,0.7-0.8,1.1c-0.1,0.4-0.3,0.9-0.3,1.9c0,1.1-0.1,1.4-0.1,4c0,2.7,0,3,0.1,4c0,1,0.2,1.5,0.3,1.9c0.2,0.4,0.4,0.8,0.7,1.1c0.3,0.3,0.7,0.6,1.1,0.7c0.4,0.1,0.9,0.3,1.9,0.3c1.1,0,1.4,0.1,4,0.1c2.7,0,3,0,4-0.1c1,0,1.5-0.2,1.9-0.3C26.8,27.5,27.5,26.8,27.8,25.9z"/>
		<path d="M14.9,20c0-2.8,2.3-5.1,5.1-5.1c2.8,0,5.1,2.3,5.1,5.1c0,2.8-2.3,5.1-5.1,5.1C17.2,25.1,14.9,22.8,14.9,20z M16.7,20c0,1.8,1.5,3.3,3.3,3.3c1.8,0,3.3-1.5,3.3-3.3c0-1.8-1.5-3.3-3.3-3.3C18.2,16.7,16.7,18.2,16.7,20z"/>
		<path d="M26.5,14.7c0,0.7-0.5,1.2-1.2,1.2c-0.7,0-1.2-0.5-1.2-1.2c0-0.7,0.5-1.2,1.2-1.2C26,13.5,26.5,14,26.5,14.7L26.5,14.7z"/>
	</g>
</svg>
