<svg width="36" height="36" viewBox="0 0 36 36" fill="none" xmlns="http://www.w3.org/2000/svg">
<path fill-rule="evenodd" clip-rule="evenodd" d="M18 36C27.9411 36 36 27.9411 36 18C36 8.05887 27.9411 0 18 0C8.05887 0 0 8.05887 0 18C0 27.9411 8.05887 36 18 36Z" fill="url(#paint0_linear_901_824)"/>
<path d="M16.3281 25H13.375C11.5117 25 10 23.4883 10 21.625V14.875C10 13.0117 11.5117 11.5 13.375 11.5H16.3281C16.5391 11.5 16.75 11.7109 16.75 11.9219V13.3281C16.75 13.5742 16.5391 13.75 16.3281 13.75H13.375C12.7422 13.75 12.25 14.2773 12.25 14.875V21.625C12.25 22.2578 12.7422 22.75 13.375 22.75H16.3281C16.5391 22.75 16.75 22.9609 16.75 23.1719V24.5781C16.75 24.8242 16.5391 25 16.3281 25ZM20.4414 14.3477C20.0898 14.0312 20.0898 13.4688 20.4414 13.1523L21.2148 12.3789C21.5312 12.0273 22.0586 12.0273 22.4102 12.3789L27.7188 17.6523C28.0703 18.0039 28.0703 18.5312 27.7188 18.8477L22.375 24.1562C22.0586 24.5078 21.5312 24.4727 21.2148 24.1562L20.4414 23.3828C20.0898 23.0664 20.0898 22.5039 20.4414 22.1875L23.1836 19.6562H16.4688C15.9766 19.6562 15.625 19.3047 15.625 18.8125V17.6875C15.625 17.2305 15.9766 16.8438 16.4688 16.8438H23.1836L20.4414 14.3477Z" fill="white"/>
<defs>
<linearGradient id="paint0_linear_901_824" x1="0.5" y1="36" x2="36.5" y2="-2.17929e-07" gradientUnits="userSpaceOnUse">
<stop stop-color="#AC3A33"/>
<stop offset="1" stop-color="#D91205"/>
</linearGradient>
</defs>
</svg>
