<svg xmlns="http://www.w3.org/2000/svg" viewBox="0 0 40 40">
	<g>
		<path d="M26.1,15c0,3.3-2.7,6.1-6.1,6.1c-3.3,0-6-2.7-6.1-6.1c0-3.3,2.7-6.1,6.1-6.1S26.1,11.7,26.1,15z M23.3,15c0-1.8-1.5-3.3-3.3-3.3s-3.3,1.5-3.3,3.3c0,1.8,1.5,3.3,3.3,3.3C21.8,18.3,23.3,16.8,23.3,15z"/>
		<path d="M25.9,23.8c0.7-0.4,1-1.1,1-1.9c0-0.6-0.4-1.2-0.9-1.5c-0.6-0.3-1.3-0.2-1.8,0.2c-2.5,1.8-5.8,1.8-8.3,0c-0.5-0.4-1.2-0.5-1.8-0.2c-0.6,0.3-0.9,0.9-0.9,1.5c0,0.8,0.4,1.5,1,1.9c0.8,0.5,1.7,1,2.7,1.3c0.2,0,0.3,0.1,0.5,0.1l-2.8,2.7c-0.7,0.7-0.7,1.8,0,2.6c0.7,0.7,1.9,0.7,2.6,0c0,0,0,0,0,0l2.8-2.9l2.8,2.9c0.7,0.7,1.9,0.7,2.6,0c0.7-0.7,0.8-1.8,0-2.6c0,0,0,0,0,0l-2.8-2.7c0.2,0,0.3-0.1,0.5-0.1C24.1,24.8,25,24.4,25.9,23.8z"/>
	</g>
</svg>
