<svg width="32" height="18" viewBox="0 0 32 18" fill="none" xmlns="http://www.w3.org/2000/svg">
  <path d="M22.9766 17.2143C22.6766 17.2143 22.4766 17.1143 22.2766 16.9143C21.8766 16.5143 21.8766 15.9143 22.2766 15.5143L28.9766 8.91426L22.2766 2.31426C21.8766 1.91426 21.8766 1.31426 22.2766 0.914258C22.6766 0.514258 23.2766 0.514258 23.6766 0.914258L31.0766 8.21426C31.2766 8.41426 31.3766 8.61426 31.3766 8.91426C31.3766 9.21426 31.2766 9.41426 31.0766 9.61426L23.6766 16.9143C23.4766 17.1143 23.2766 17.2143 22.9766 17.2143Z" fill="white"/>
  <path d="M30.3758 9.91406H1.67578C1.07578 9.91406 0.675781 9.51406 0.675781 8.91406C0.675781 8.31406 1.07578 7.91406 1.67578 7.91406H30.3758C30.9758 7.91406 31.3758 8.31406 31.3758 8.91406C31.3758 9.51406 30.9758 9.91406 30.3758 9.91406Z" fill="white"/>
</svg>
