<svg xmlns="http://www.w3.org/2000/svg" viewBox="0 0 40 40">
	<path d="M20,0.5C9.2,0.5,0.5,9.2,0.5,20S9.2,39.5,20,39.5S39.5,30.8,39.5,20S30.8,0.5,20,0.5z M30.1,33.7C27.2,35.7,23.8,37,20,37s-7.2-1.3-10.1-3.3v-1.1c0-2.8,2.3-5,5-5c0.9,0,2.2,0.9,5,0.9c2.9,0,4.2-0.9,5-0.9c2.8,0,5,2.3,5,5V33.7z M32.5,31.5C31.9,27.8,28.8,25,25,25c-1.6,0-2.4,0.9-5,0.9S16.6,25,15,25c-3.8,0-6.9,2.8-7.4,6.5C4.7,28.5,3,24.4,3,20c0-9.4,7.6-17,17-17s17,7.6,17,17C37,24.4,35.3,28.5,32.5,31.5z M20,9.3c-3.8,0-6.9,3.1-6.9,6.9s3.1,6.9,6.9,6.9s6.9-3.1,6.9-6.9S23.8,9.3,20,9.3z M20,20.6c-2.4,0-4.4-2-4.4-4.4s2-4.4,4.4-4.4s4.4,2,4.4,4.4S22.4,20.6,20,20.6z"/>
</svg>
