<svg width="36" height="36" viewBox="0 0 36 36" fill="none" xmlns="http://www.w3.org/2000/svg">
<path fill-rule="evenodd" clip-rule="evenodd" d="M18 36C27.9411 36 36 27.9411 36 18C36 8.05887 27.9411 0 18 0C8.05887 0 0 8.05887 0 18C0 27.9411 8.05887 36 18 36Z" fill="url(#paint0_linear_901_818)"/>
<path d="M17.875 18.25C15.3789 18.25 13.375 16.2461 13.375 13.75C13.375 11.2891 15.3789 9.25 17.875 9.25C20.3359 9.25 22.375 11.2891 22.375 13.75C22.375 16.2461 20.3359 18.25 17.875 18.25ZM21.0039 19.375C23.6055 19.375 25.75 21.5195 25.75 24.1211V25.5625C25.75 26.5117 24.9766 27.25 24.0625 27.25H11.6875C10.7383 27.25 10 26.5117 10 25.5625V24.1211C10 21.5195 12.1094 19.375 14.7109 19.375H15.3086C16.082 19.7617 16.9609 19.9375 17.875 19.9375C18.7891 19.9375 19.6328 19.7617 20.4062 19.375H21.0039Z" fill="white"/>
<defs>
<linearGradient id="paint0_linear_901_818" x1="0.5" y1="36" x2="36.5" y2="-2.17929e-07" gradientUnits="userSpaceOnUse">
<stop stop-color="#6B934C"/>
<stop offset="1" stop-color="#88B42A"/>
</linearGradient>
</defs>
</svg>
