<svg xmlns="http://www.w3.org/2000/svg" viewBox="0 0 40 40">
	<path d="M19.7,27.5h1.6c0,0,0.5-0.1,0.7-0.3c0.2-0.2,0.2-0.7,0.2-0.7s0-2.1,1-2.4c1-0.3,2.3,2,3.7,2.9c1,0.7,1.8,0.5,1.8,0.5l3.7,0c0,0,1.9-0.1,1-1.6c-0.1-0.1-0.5-1.1-2.7-3c-2.3-2.1-2-1.7,0.8-5.3c1.7-2.2,2.4-3.5,2.1-4c-0.2-0.5-1.4-0.4-1.4-0.4l-4.1,0c0,0-0.3,0-0.5,0.1c-0.2,0.1-0.4,0.4-0.4,0.4s-0.7,1.7-1.5,3.1c-1.8,3-2.6,3.2-2.9,3c-0.7-0.4-0.5-1.7-0.5-2.7c0-2.9,0.5-4.1-0.9-4.4c-0.4-0.1-0.8-0.2-1.9-0.2c-1.5,0-2.7,0-3.4,0.3c-0.5,0.2-0.8,0.7-0.6,0.7c0.3,0,0.9,0.2,1.2,0.6c0.4,0.6,0.4,1.8,0.4,1.8s0.2,3.4-0.6,3.8c-0.6,0.3-1.3-0.3-2.9-3c-0.8-1.4-1.5-2.9-1.5-2.9s-0.1-0.3-0.3-0.4c-0.3-0.2-0.6-0.2-0.6-0.2l-3.9,0c0,0-0.6,0-0.8,0.3c-0.2,0.2,0,0.7,0,0.7s3.1,6.9,6.5,10.4C16.1,27.7,19.7,27.5,19.7,27.5L19.7,27.5z"/>
</svg>
