<svg version="1.0" xmlns="http://www.w3.org/2000/svg" width="370.667" height="370.667" viewBox="0 0 278 278"><path d="M68.6 58.8c-1 1.6 2.5 6.7 8.2 12.1 10.3 9.7 19.8 15.1 36.4 20.7 5.6 1.9 10.4 3.4 10.7 3.4.2 0-3.8-2.1-9-4.8-9.4-4.7-28.8-17.1-31.1-20-.7-.8 3.2 1.5 8.7 5.1 11.7 7.6 27.4 16.2 28.1 15.4.8-.7-11.6-12.9-17.9-17.6-12.4-9.3-32.1-17.5-34.1-14.3z"/><path d="M36.3 63.7c-6.6 2.6 15 19.9 34.3 27.4 8.4 3.2 8.4 3.3 5.9 4.7-1.7.8-3.8 1.1-5.8.6-6.6-1.5-8.5-1.6-20.9-1.9-13.5-.3-24 1.5-29.5 5.1l-2.7 1.7 2.2 1.7c4.7 3.9 28.2 5 42.2 2 2.5-.5 4.8-.9 5.2-1 .4 0-.1 1.3-1 3-1.2 2.1-3.5 3.7-8.1 5.6-16.2 6.4-40.1 21.8-43.3 27.7l-1.1 2.1 2.9-1.9c1.6-1 7.9-5.1 13.9-9.1 6.1-4 13.2-8.4 15.9-9.8 2.7-1.4 5.4-3 6-3.4.6-.5 3.4-1.8 6.1-2.9l5.1-2v4.6c.2 9.2 6 15.8 12.8 14.5l2.7-.5-3 5.8c-4 7.7-7.8 18.2-7.7 21.3.3 9.5 18.3-8.9 26.5-27.2 2.5-5.4 9.6-26.6 8.6-25.6-.2.1-2.9 5.5-6.1 11.8-5.3 10.6-15.5 27.4-17.5 28.6-.5.3 1.3-3 4-7.3 5-8.2 13.1-23.6 15.1-28.8l1.1-3-3.5 3.4-3.6 3.5v-4.7c0-3.1.4-4.7 1.3-4.7.6 0 5.1-.6 9.9-1.4 7.8-1.1 8.8-1.1 9.1.3.4 1.5.5 1.5.6 0 .1-1 2.2-2.1 6.4-3.3 10.2-2.8 23.1-9.7 26.8-14.3.8-.9-.2-.5-2.2 1-8.9 6.7-22.8 11-42.4 13.2-2.7.3-6.2.8-7.6 1.1-2 .4-3-.1-4.3-2.1-1.7-2.5-1.7-2.6.9-1.9 1.4.3 2.5.4 2.5 0 0-1.3-19.6-13.5-33.2-20.6-2.6-1.3-4.5-2.6-4.3-2.8.7-.8 23 10.8 30.5 15.8 4.1 2.8 8.6 5.7 10 6.7 1.4.9-.9-1.6-5-5.6-13-12.5-27.6-21.3-42.6-25.6-8.6-2.5-10.8-2.8-13.1-1.8zm18.2 10.1c-.3.3-1.1 0-1.8-.7-.9-1-.8-1.1.6-.5 1 .3 1.5.9 1.2 1.2zm17.1 24.9c-.4.4-8.3.8-17.4.9-9.2 0-14.7-.3-12.2-.6 7-.9 30.5-1.2 29.6-.3z"/><path d="M122.7 102.1c.7.7 1.5 1 1.8.7.3-.3-.2-.9-1.2-1.2-1.4-.6-1.5-.5-.6.5zm14.8.1c-2.9 1.6-5.5 4.5-5.8 6.5-.4 2.8-1.6 3-4 .8-1.2-1.1-3.1-2.7-4.2-3.5-1.9-1.4-1.9-1.4-.4.5.8 1.1 2.9 3.6 4.6 5.6 3.2 3.8 14.3 21.3 14.3 22.6 0 .4-3.1-4-7-9.8-5.7-8.5-16.3-21.8-13.5-17.1.6 1.1.3 1.2-1.2.3-9.7-5.1-18.8 3-18.6 16.5.1 17 14.2 26.1 22.8 14.8 1.6-2.1 2.8-5.2 3.2-8.4l.6-4.9 4.7 6.7c4.9 6.9 11.2 13.7 14.3 15.3 3.9 2.2 3.5-4.2-1-13.7-1.5-3.2-3-6.3-3.2-6.7-.2-.5.7-.3 2 .3 4 2.2 13 2.1 17-.2 4.5-2.5 5.9-5.4 5.3-10.5-1-8.4-11.9-16.3-22.3-16.3-3.1 0-6.5.6-7.6 1.2z"/><path d="M126.7 104.1c.7.7 1.5 1 1.8.7.3-.3-.2-.9-1.2-1.2-1.4-.6-1.5-.5-.6.5zm-104.4 9.1c-9.4 1.4-22.9 7.6-22 10.1 1 3.2 17.9 1.4 28.7-3.1 12.2-5.1 13.5-6.9 3.2-4.8-3.4.7-6.2.9-6.2.5s3.5-1.4 7.8-2.2l7.7-1.4h-7c-3.8.1-9.3.4-12.2.9zm.7 3.8c-3.4 1.1-6 1.1-3.5 0 1.1-.5 2.9-.8 4-.8 1.6 0 1.5.2-.5.8zm31.2 4c-9.5 10.9-17.6 29.1-13.6 30.7 2.8 1 13-12.1 16.9-21.7 3.8-9.6 4.5-12.8 2.8-13.4-1.9-.8-1.1-1.3-6.1 4.4zm2.5 1.8c-1.9 2.7-4.9 7.4-6.6 10.3-1.7 3-3.1 5-3.1 4.5 0-2.1 12-21 12.8-20.1.2.2-1.1 2.6-3.1 5.3zm116.1 28.7c-3.2.7-5.8 1-5.8.7 0-.3-1.1.5-2.4 1.7-2.5 2.3-2.5 5.1-.1 5.1.8 0 1.7.6 2.2 1.2.9 1.6 1.1 35.8.2 35.8-1.1 0-4.1 5.1-3.5 5.8.4.3 4.3.7 8.8.7 7.2.2 8.4 0 10-1.9 1.7-2.1 1.7-2.1 1.2 0-.5 1.9-.1 2 8 1.9 7.3-.1 8.8-.4 10.1-2 2-2.7 1.9-4.2-.5-4.8-1.3-.3-2-1.4-2-2.9-.1-11.5-.8-18.6-2-20.5-2.5-3.9-7.4-5-12.7-2.8-2.1.9-4 1.6-4.3 1.6-.8-.1-.7-16.4.2-18.9.9-2.5.8-2.5-7.4-.7zm12.9 29.6c1.6 3 1.3 14.7-.4 16.1-.9.7-1.9.3-3.6-1.4-2.1-2.1-2.3-3.1-2.1-10.3.1-4.4.2-8.1.3-8.2.5-1 4.9 1.9 5.8 3.8zm-166-26.7C8 158.7-.3 172.1 1.6 183.5c2.2 13.5 9.8 19.9 23.4 19.9 10 0 15.4-2.7 21.4-10.8 7.1-9.4 7.5-22.2 1.2-30.9-5.2-7.1-18.8-10.7-27.9-7.3zm11.2 8.1c3.7 3.2 6 9.1 6.5 17.1.6 8.5-1 15.1-3.7 16-6.6 2.2-11.2-.1-14.8-7.4-2.8-5.8-2.7-5.5-2.9-14.5-.2-10.1 2-13.6 8.7-13.7 1.9 0 4.3 1 6.2 2.5zm111.6-8.8c-3.4.9-6.4 3.4-9.5 8.1-3.3 5-3.7 8.5-1.6 13.5 1.2 3.1 8.2 9.7 10.2 9.7 1.4.1 6 4.5 7.4 6.9 1.7 3.3.6 5.1-3.1 5.1-4.2 0-9.4-4-11-8.5-1.5-4.1-3.1-4.4-5.2-1.2-1.5 2.4-1.4 7.7.3 12.2 1.6 4.2 15.3 5.5 21.7 2.1 5.4-2.8 10.6-10.1 10.5-14.8-.2-6.7-2-9-13.2-16.1-5.2-3.4-6.6-4.8-6.8-7.1-.2-1.6.2-3.2.9-3.6 3.4-2.2 10.9 2.7 10.9 7.1 0 1 .6 1.9 1.4 1.9 2.1 0 4.2-4.1 4.5-9 .2-2.5.5-4.8.7-5.1.8-1.4-13.5-2.3-18.1-1.2zm-78.9 16.2c-3.7 1.1-6.5 2.6-7.4 4-1.4 2-1.3 2.4.5 4.1 2.9 2.7 3.1 15.8.2 19.1-3.9 4.5-2.7 5.5 6.7 5.4 8.3 0 8.6-.1 10-2.7 1.3-2.5 1.3-2.8-.6-3.8-1.8-.9-2-2.1-2-9.5 0-7.6.2-8.5 1.8-8.5 3.4 0 4.9 3.1 5.1 10.2.2 5.4-.2 7.4-1.8 9.6-1.1 1.5-1.7 3.3-1.3 3.8.4.5 4.2 1 8.5.9 6.6 0 8.1-.3 9.3-1.9 1.9-2.7 1.8-4.3-.6-4.9-1.8-.5-2-1.4-2-10.1 0-10.6-.9-13.5-5-15.9-3.6-2.2-4.7-2.1-9.5.3-2.9 1.5-4.1 1.7-4.6.8-.4-.7-.5-1.6-.3-2 .6-1 .2-.9-7 1.1zm44.8-.8c-3.9 1.1-8.7 5.9-11.3 11.2-3.6 7.3-.8 18.7 5.4 21.5 4.6 2.1 11.7 1.5 16.2-1.4 3.7-2.5 7.3-6.9 7.3-9.2 0-.5-1.9-.3-4.3.6-5 1.8-8.8 1.1-12-2.1l-2.2-2.2 7.4-.7c7.6-.8 11.1-2.6 11.1-5.7-.1-2.9-3.8-9.9-5.8-11-3-1.6-8.3-2.1-11.8-1zm3.6 7.9c1.5 2.7.6 3.8-2.5 3.2-2.6-.5-2.9-1-1.9-3.6.9-2.2 3.1-2 4.4.4zm105.1-7.7c-7.7 2.5-13.6 11.8-12.9 19.9 1.7 17.4 24.8 19.1 33.4 2.5 1.4-2.7 1.9-6.2 1.6-11.9-.2-3.2-4.6-8.6-8.1-10-4.1-1.5-10.3-1.8-14-.5zm6.3 7.9c2.2 3.4 3.4 9.8 2.7 14.8-.7 5.3-3.2 6.1-6.2 2-2.1-2.8-3.5-12.4-2.5-16.4.8-3.3 4-3.5 6-.4zm25.3-7.2c-5.6 1.8-8.6 4.1-8.7 6.7 0 .7.7 1.3 1.5 1.3 2.7 0 3.2 3.4 3.1 19.5-.1 11.9-.4 16-1.3 16-1.6 0-4.6 4.2-3.8 5.4.3.5 2.2.8 4.3.6 2-.2 6.6-.3 10.2-.4 6.1-.1 6.7-.3 8.3-3l1.7-2.8-3.3-.9c-2.9-.9-3.2-1.4-3.5-5.2-.3-3.6 0-4.2 1.6-4.2 3.4 0 9.3-3 12.4-6.3 6.8-7.2 8.7-16.6 4.5-22.8-4-5.9-8.8-6.9-15.9-3.3-2.6 1.4-2.8 1.3-2.8-.6 0-2.4-.7-2.4-8.3 0zm14.2 10.1c2.8 3 3.3 6.4 2.3 14.6-.3 1.8-4.8 1.6-6.6-.3-1.2-1.1-1.6-3.6-1.6-9 0-6.7.2-7.4 2-7.4 1 0 2.8 1 3.9 2.1z"/></svg>