<?xml version="1.0" standalone="no"?>
<!DOCTYPE svg PUBLIC "-//W3C//DTD SVG 20010904//EN"
 "http://www.w3.org/TR/2001/REC-SVG-20010904/DTD/svg10.dtd">
<svg version="1.0" xmlns="http://www.w3.org/2000/svg"
 width="278.000000pt" height="278.000000pt" viewBox="0 0 278.000000 278.000000"
 preserveAspectRatio="xMidYMid meet">
<metadata>
Created by potrace 1.11, written by Peter Selinger 2001-2013
</metadata>
<g transform="translate(0.000000,278.000000) scale(0.100000,-0.100000)"
fill="#000000" stroke="none">
<path d="M686 2192 c-10 -16 25 -67 82 -121 103 -97 198 -151 364 -207 56 -19
104 -34 107 -34 2 0 -38 21 -90 48 -94 47 -288 171 -311 200 -7 8 32 -15 87
-51 117 -76 274 -162 281 -154 8 7 -116 129 -179 176 -124 93 -321 175 -341
143z"/>
<path d="M363 2143 c-66 -26 150 -199 343 -274 84 -32 84 -33 59 -47 -17 -8
-38 -11 -58 -6 -66 15 -85 16 -209 19 -135 3 -240 -15 -295 -51 l-27 -17 22
-17 c47 -39 282 -50 422 -20 25 5 48 9 52 10 4 0 -1 -13 -10 -30 -12 -21 -35
-37 -81 -56 -162 -64 -401 -218 -433 -277 l-11 -21 29 19 c16 10 79 51 139 91
61 40 132 84 159 98 27 14 54 30 60 34 6 5 34 18 61 29 l51 20 0 -46 c2 -92
60 -158 128 -145 l27 5 -30 -58 c-40 -77 -78 -182 -77 -213 3 -95 183 89 265
272 25 54 96 266 86 256 -2 -1 -29 -55 -61 -118 -53 -106 -155 -274 -175 -286
-5 -3 13 30 40 73 50 82 131 236 151 288 l11 30 -35 -34 -36 -35 0 47 c0 31 4
47 13 47 6 0 51 6 99 14 78 11 88 11 91 -3 4 -15 5 -15 6 0 1 10 22 21 64 33
102 28 231 97 268 143 8 9 -2 5 -22 -10 -89 -67 -228 -110 -424 -132 -27 -3
-62 -8 -76 -11 -20 -4 -30 1 -43 21 -17 25 -17 26 9 19 14 -3 25 -4 25 0 0 13
-196 135 -332 206 -26 13 -45 26 -43 28 7 8 230 -108 305 -158 41 -28 86 -57
100 -67 14 -9 -9 16 -50 56 -130 125 -276 213 -426 256 -86 25 -108 28 -131
18z m182 -101 c-3 -3 -11 0 -18 7 -9 10 -8 11 6 5 10 -3 15 -9 12 -12z m171
-249 c-4 -4 -83 -8 -174 -9 -92 0 -147 3 -122 6 70 9 305 12 296 3z"/>
<path d="M1227 1759 c7 -7 15 -10 18 -7 3 3 -2 9 -12 12 -14 6 -15 5 -6 -5z"/>
<path d="M1375 1758 c-29 -16 -55 -45 -58 -65 -4 -28 -16 -30 -40 -8 -12 11
-31 27 -42 35 -19 14 -19 14 -4 -5 8 -11 29 -36 46 -56 32 -38 143 -213 143
-226 0 -4 -31 40 -70 98 -57 85 -163 218 -135 171 6 -11 3 -12 -12 -3 -97 51
-188 -30 -186 -165 1 -170 142 -261 228 -148 16 21 28 52 32 84 l6 49 47 -67
c49 -69 112 -137 143 -153 39 -22 35 42 -10 137 -15 32 -30 63 -32 67 -2 5 7
3 20 -3 40 -22 130 -21 170 2 45 25 59 54 53 105 -10 84 -119 163 -223 163
-31 0 -65 -6 -76 -12z"/>
<path d="M1267 1739 c7 -7 15 -10 18 -7 3 3 -2 9 -12 12 -14 6 -15 5 -6 -5z"/>
<path d="M223 1648 c-94 -14 -229 -76 -220 -101 10 -32 179 -14 287 31 122 51
135 69 32 48 -34 -7 -62 -9 -62 -5 0 4 35 14 78 22 l77 14 -70 0 c-38 -1 -93
-4 -122 -9z m7 -38 c-34 -11 -60 -11 -35 0 11 5 29 8 40 8 16 0 15 -2 -5 -8z"/>
<path d="M542 1570 c-95 -109 -176 -291 -136 -307 28 -10 130 121 169 217 38
96 45 128 28 134 -19 8 -11 13 -61 -44z m25 -18 c-19 -27 -49 -74 -66 -103
-17 -30 -31 -50 -31 -45 0 21 120 210 128 201 2 -2 -11 -26 -31 -53z"/>
<path d="M1728 1265 c-32 -7 -58 -10 -58 -7 0 3 -11 -5 -24 -17 -25 -23 -25
-51 -1 -51 8 0 17 -6 22 -12 9 -16 11 -358 2 -358 -11 0 -41 -51 -35 -58 4 -3
43 -7 88 -7 72 -2 84 0 100 19 17 21 17 21 12 0 -5 -19 -1 -20 80 -19 73 1 88
4 101 20 20 27 19 42 -5 48 -13 3 -20 14 -20 29 -1 115 -8 186 -20 205 -25 39
-74 50 -127 28 -21 -9 -40 -16 -43 -16 -8 1 -7 164 2 189 9 25 8 25 -74 7z
m129 -296 c16 -30 13 -147 -4 -161 -9 -7 -19 -3 -36 14 -21 21 -23 31 -21 103
1 44 2 81 3 82 5 10 49 -19 58 -38z"/>
<path d="M197 1236 c-117 -43 -200 -177 -181 -291 22 -135 98 -199 234 -199
100 0 154 27 214 108 71 94 75 222 12 309 -52 71 -188 107 -279 73z m112 -81
c37 -32 60 -91 65 -171 6 -85 -10 -151 -37 -160 -66 -22 -112 1 -148 74 -28
58 -27 55 -29 145 -2 101 20 136 87 137 19 0 43 -10 62 -25z"/>
<path d="M1425 1243 c-34 -9 -64 -34 -95 -81 -33 -50 -37 -85 -16 -135 12 -31
82 -97 102 -97 14 -1 60 -45 74 -69 17 -33 6 -51 -31 -51 -42 0 -94 40 -110
85 -15 41 -31 44 -52 12 -15 -24 -14 -77 3 -122 16 -42 153 -55 217 -21 54 28
106 101 105 148 -2 67 -20 90 -132 161 -52 34 -66 48 -68 71 -2 16 2 32 9 36
34 22 109 -27 109 -71 0 -10 6 -19 14 -19 21 0 42 41 45 90 2 25 5 48 7 51 8
14 -135 23 -181 12z"/>
<path d="M636 1081 c-37 -11 -65 -26 -74 -40 -14 -20 -13 -24 5 -41 29 -27 31
-158 2 -191 -39 -45 -27 -55 67 -54 83 0 86 1 100 27 13 25 13 28 -6 38 -18 9
-20 21 -20 95 0 76 2 85 18 85 34 0 49 -31 51 -102 2 -54 -2 -74 -18 -96 -11
-15 -17 -33 -13 -38 4 -5 42 -10 85 -9 66 0 81 3 93 19 19 27 18 43 -6 49 -18
5 -20 14 -20 101 0 106 -9 135 -50 159 -36 22 -47 21 -95 -3 -29 -15 -41 -17
-46 -8 -4 7 -5 16 -3 20 6 10 2 9 -70 -11z"/>
<path d="M1084 1089 c-39 -11 -87 -59 -113 -112 -36 -73 -8 -187 54 -215 46
-21 117 -15 162 14 37 25 73 69 73 92 0 5 -19 3 -43 -6 -50 -18 -88 -11 -120
21 l-22 22 74 7 c76 8 111 26 111 57 -1 29 -38 99 -58 110 -30 16 -83 21 -118
10z m36 -79 c15 -27 6 -38 -25 -32 -26 5 -29 10 -19 36 9 22 31 20 44 -4z"/>
<path d="M2171 1087 c-77 -25 -136 -118 -129 -199 17 -174 248 -191 334 -25
14 27 19 62 16 119 -2 32 -46 86 -81 100 -41 15 -103 18 -140 5z m63 -79 c22
-34 34 -98 27 -148 -7 -53 -32 -61 -62 -20 -21 28 -35 124 -25 164 8 33 40 35
60 4z"/>
<path d="M2487 1080 c-56 -18 -86 -41 -87 -67 0 -7 7 -13 15 -13 27 0 32 -34
31 -195 -1 -119 -4 -160 -13 -160 -16 0 -46 -42 -38 -54 3 -5 22 -8 43 -6 20
2 66 3 102 4 61 1 67 3 83 30 l17 28 -33 9 c-29 9 -32 14 -35 52 -3 36 0 42
16 42 34 0 93 30 124 63 68 72 87 166 45 228 -40 59 -88 69 -159 33 -26 -14
-28 -13 -28 6 0 24 -7 24 -83 0z m142 -101 c28 -30 33 -64 23 -146 -3 -18 -48
-16 -66 3 -12 11 -16 36 -16 90 0 67 2 74 20 74 10 0 28 -10 39 -21z"/>
</g>
</svg>
