<svg width="366" height="27" fill="none" xmlns="http://www.w3.org/2000/svg"><path d="M13.557 0c1.87-.022 3.73.287 5.491.912a12.4 12.4 0 014.292 2.643 11.689 11.689 0 012.785 4.25 16.882 16.882 0 010 11.383 11.689 11.689 0 01-2.785 4.249 12.266 12.266 0 01-4.292 2.635 16.848 16.848 0 01-10.983 0 12.266 12.266 0 01-4.291-2.635 11.688 11.688 0 01-2.786-4.25 16.882 16.882 0 010-11.383 11.688 11.688 0 012.786-4.249A12.4 12.4 0 018.064.912 15.874 15.874 0 0113.558 0zm0 1.403a7.15 7.15 0 00-3.797.983 7.89 7.89 0 00-2.644 2.658 12.516 12.516 0 00-1.57 3.852 21.544 21.544 0 000 9.177 12.43 12.43 0 001.57 3.898A7.89 7.89 0 009.76 24.63a7.828 7.828 0 007.594 0 7.89 7.89 0 002.644-2.659 12.431 12.431 0 001.569-3.898 21.545 21.545 0 000-9.177 12.517 12.517 0 00-1.57-3.852 7.89 7.89 0 00-2.643-2.658 7.15 7.15 0 00-3.797-.983zm16.593 24.03a18.568 18.568 0 002.612-.593 2.865 2.865 0 001.451-.959 3.518 3.518 0 00.636-1.7c.107-.934.154-1.874.141-2.814l.141-15.22a5.39 5.39 0 00-1.043-1.02 7.01 7.01 0 00-1.224-.726 10.474 10.474 0 00-1.302-.506L30.22 1.48V.546l1.852.156A21.44 21.44 0 0033.93.78c1.627 0 3.227-.078 4.801-.234a303.707 303.707 0 007.147 9.465 159.023 159.023 0 016.975 9.59h.07v-3.173c0-1.271 0-2.597-.054-3.969-.055-1.372-.087-2.698-.157-3.992A32.403 32.403 0 0052.39 5.2a5.046 5.046 0 00-.478-1.66 3.053 3.053 0 00-.863-1.06 3.814 3.814 0 00-1.216-.624 13.455 13.455 0 00-1.57-.375V.546l2.487.156c.84.054 1.664.078 2.495.078A51.19 51.19 0 0058.15.546v.935a6.642 6.642 0 00-2.19.43 2.41 2.41 0 00-1.215 1.176c-.31.7-.492 1.45-.534 2.215-.078.92-.117 2.105-.117 3.54v17.932h-2.087a88.635 88.635 0 00-2.401-3.836 129.83 129.83 0 00-2.809-4.086 158.504 158.504 0 00-2.965-4.046 549.175 549.175 0 00-2.872-3.758c-.925-1.177-1.765-2.253-2.541-3.228a67.697 67.697 0 00-1.985-2.41v13.255c-.011 1.065.039 2.13.149 3.19.052.672.262 1.323.612 1.902.343.483.832.846 1.396 1.037.806.267 1.633.47 2.471.608v.935a73.484 73.484 0 00-2.573-.117 93.914 93.914 0 00-2.581-.039c-.87 0-1.953 0-2.895.04-.941.038-1.906.062-2.895.116l.032-.904zm30.118 0a7.474 7.474 0 001.922-.335 2.36 2.36 0 001.114-.78 3.17 3.17 0 00.51-1.357c.088-.659.13-1.323.125-1.988V6.097a13.516 13.516 0 00-.125-1.91 3.285 3.285 0 00-.51-1.372 2.501 2.501 0 00-1.114-.842 5.87 5.87 0 00-1.922-.336V.546l3.616.156c1.209.054 2.417.078 3.617.078 2.286 0 4.558-.026 6.818-.078L81.23.546v5.2c.021.723.105 1.443.251 2.152l-.784.156a8.636 8.636 0 00-2.699-4.475c-1.24-1.003-3.036-1.508-5.39-1.513h-3.922v9.512h1.836c.608 0 1.213-.086 1.796-.257a4.83 4.83 0 001.64-.78c.538-.41.988-.92 1.326-1.505a7.396 7.396 0 00.847-2.339h.706c0 .913-.055 1.84-.086 2.776a83.327 83.327 0 00-.055 2.776c0 .912 0 1.87.055 2.799.055.928.063 1.863.086 2.799h-.706a8.54 8.54 0 00-.785-2.425 5.22 5.22 0 00-1.24-1.56 4.347 4.347 0 00-1.607-.841 7.102 7.102 0 00-1.954-.25h-1.883v11.617c.614.192 1.244.33 1.883.413.768.096 1.54.14 2.314.133a11.238 11.238 0 006.277-1.817 14.24 14.24 0 004.707-5.652l.667.545a131.162 131.162 0 00-1.68 4.148 44.455 44.455 0 00-1.388 4.265 326.995 326.995 0 00-5.491-.117 425.573 425.573 0 00-5.492-.039h-6.167c-.886 0-1.67 0-2.353.055-.683.054-1.263.054-1.71.078l.039-.967zm54.046-17.106a8.92 8.92 0 00-1.145-2.698 10.702 10.702 0 00-1.836-2.19 8.727 8.727 0 00-2.275-1.49 6.258 6.258 0 00-2.511-.546 4.069 4.069 0 00-2.698.92 3.405 3.405 0 00-1.115 2.76 3.232 3.232 0 001.005 2.386c.751.71 1.602 1.31 2.526 1.778a83.605 83.605 0 003.264 1.63c1.158.538 2.255 1.2 3.271 1.972a10.478 10.478 0 012.526 2.76 7.397 7.397 0 011.004 3.992 7.498 7.498 0 01-.604 3.048 6.561 6.561 0 01-1.694 2.34 7.862 7.862 0 01-2.644 1.489 10.74 10.74 0 01-3.46.522 9.026 9.026 0 01-1.765-.172 40.716 40.716 0 01-1.75-.39 40.83 40.83 0 00-1.749-.397 9.033 9.033 0 00-1.765-.172 1.572 1.572 0 00-.369.055l-.494.14-.51.156c-.136.04-.267.092-.392.156a384.81 384.81 0 00-.597-4.42 70.542 70.542 0 00-.784-4.5h.784c.278 1.01.706 1.972 1.271 2.854a12.7 12.7 0 002.063 2.527c.76.718 1.625 1.317 2.566 1.777a6.18 6.18 0 002.714.663c.711.008 1.421-.058 2.119-.195a4.717 4.717 0 001.647-.64 3.073 3.073 0 001.059-1.216c.265-.61.391-1.27.369-1.933a3.746 3.746 0 00-1.028-2.682 11.185 11.185 0 00-2.557-1.957 42.157 42.157 0 00-3.319-1.7 23.132 23.132 0 01-3.318-1.879 10.24 10.24 0 01-2.558-2.503 6.03 6.03 0 01-1.028-3.563c0-2.453.672-4.233 2.016-5.34C101.898.56 103.932.007 106.657.007c.686-.003 1.372.054 2.048.171a23.11 23.11 0 011.875.414 72.86 72.86 0 001.655.413c.476.11.963.168 1.452.171h1.263c0 .445-.047.858-.071 1.256-.024.397-.039.78-.039 1.208 0 .78 0 1.56.094 2.34.094.779.11 1.558.157 2.338l-.777.008zm5.861 17.106a15.501 15.501 0 001.765-.218 2.197 2.197 0 001.13-.546c.304-.316.513-.71.604-1.139a8.483 8.483 0 00.172-1.933V6.339c0-.944 0-1.7-.086-2.277a2.845 2.845 0 00-.455-1.364 2.358 2.358 0 00-1.098-.78 9.467 9.467 0 00-1.962-.429V.554a79.533 79.533 0 0012.184 0v.935c-.708.073-1.407.217-2.087.429a2.437 2.437 0 00-1.161.78 2.768 2.768 0 00-.494 1.364 19.452 19.452 0 00-.11 2.277V11.5h11.721V6.34c.01-.76-.024-1.52-.102-2.277a2.922 2.922 0 00-.479-1.364 2.298 2.298 0 00-1.129-.78 10.263 10.263 0 00-2.103-.429V.554c2.092.155 4.163.233 6.214.233 2.05 0 4.074-.078 6.072-.233v.935a9.868 9.868 0 00-2.048.429c-.44.145-.828.416-1.114.78a2.94 2.94 0 00-.471 1.364 19.451 19.451 0 00-.109 2.277v15.258c-.015.65.045 1.298.18 1.933.088.428.295.822.596 1.139.32.29.718.479 1.146.546.602.106 1.209.18 1.82.218v.936a98.77 98.77 0 00-3.052-.117c-1.02-.024-2.04-.04-3.052-.04s-2.024 0-3.036.04c-1.012.039-2.024.062-3.036.117v-.936a15.501 15.501 0 001.765-.218 2.307 2.307 0 001.145-.546 2.25 2.25 0 00.62-1.139 8.54 8.54 0 00.173-1.933v-8.452h-11.721v8.452a8.43 8.43 0 00.18 1.933c.088.431.301.827.612 1.139a2.36 2.36 0 001.169.546 16.06 16.06 0 001.781.218v.936a103.177 103.177 0 00-3.091-.117 134.923 134.923 0 00-3.083-.04c-1.036 0-1.985 0-2.989.04-1.004.039-1.993.062-2.981.117v-.936zM165.897 0c1.871-.023 3.73.286 5.492.912a12.316 12.316 0 014.291 2.643 11.686 11.686 0 012.817 4.25 16.88 16.88 0 010 11.383 11.688 11.688 0 01-2.793 4.249 12.2 12.2 0 01-4.292 2.635 16.823 16.823 0 01-10.983 0 12.186 12.186 0 01-4.291-2.635 11.807 11.807 0 01-2.793-4.25 16.88 16.88 0 010-11.382c.61-1.6 1.563-3.05 2.793-4.25a12.316 12.316 0 014.291-2.643A15.778 15.778 0 01165.897 0zm0 1.403a7.094 7.094 0 00-3.797.983 7.917 7.917 0 00-2.652 2.658 12.911 12.911 0 00-1.569 3.852 21.903 21.903 0 000 9.177 12.833 12.833 0 001.569 3.898 7.917 7.917 0 002.652 2.659 7.811 7.811 0 007.586 0 7.908 7.908 0 002.652-2.659 12.607 12.607 0 001.569-3.898 21.545 21.545 0 000-9.177 12.677 12.677 0 00-1.569-3.852 7.908 7.908 0 00-2.652-2.658 7.092 7.092 0 00-3.789-.983zm21.355 4.617c.011-.72-.036-1.44-.141-2.153a2.713 2.713 0 00-.549-1.31 2.36 2.36 0 00-1.146-.725 9.75 9.75 0 00-1.937-.35V.545c.682.054 1.467.101 2.353.156.887.054 1.899.078 3.005.078a28.22 28.22 0 003.334-.195 29.202 29.202 0 013.444-.195 11.047 11.047 0 013.209.468c1 .292 1.934.77 2.754 1.41A6.792 6.792 0 01203.5 4.67a7.75 7.75 0 01.729 3.462 6.585 6.585 0 01-.627 3.025 6.526 6.526 0 01-1.734 2.136 7.328 7.328 0 01-2.432 1.271 9.717 9.717 0 01-2.809.413 14.996 14.996 0 01-2.353-.194 9.967 9.967 0 01-2.283-.671v6.853c-.008.724.029 1.448.11 2.168.041.485.212.95.494 1.349.29.38.698.654 1.161.78.704.194 1.428.314 2.157.358v.78a99.643 99.643 0 00-3.02-.117c-.996-.024-2.008-.04-3.021-.04-1.012 0-2.149 0-3.208.04-1.059.039-2.118.062-3.138.117v-.78a9.785 9.785 0 002.063-.359 2.06 2.06 0 001.13-.78 2.89 2.89 0 00.478-1.348c.077-.72.112-1.444.102-2.168l-.047-14.946zm4.707 6.891c.417.194.85.35 1.295.468.452.128.919.193 1.388.195a4.23 4.23 0 002.024-.376 4.201 4.201 0 001.601-1.285 6.986 6.986 0 001.216-4.21 10.34 10.34 0 00-.251-2.339 5.63 5.63 0 00-.785-1.879 3.705 3.705 0 00-1.388-1.255 4.576 4.576 0 00-2.087-.429 7.709 7.709 0 00-1.569.156 7.544 7.544 0 00-1.452.476l.008 10.478zM217.229.546l2.314.156c.785.054 1.53.078 2.307.078 1.904 0 3.81-.078 5.719-.234v.935h-.902a2.32 2.32 0 00-.785.234 1.572 1.572 0 00-.604.554c-.169.31-.248.661-.227 1.013.068.338.157.671.267.998.172.585.408 1.341.706 2.254.298.912.627 1.941 1.004 3.118l1.153 3.524c.387 1.201.769 2.381 1.146 3.54.376 1.162.706 2.222.988 3.189h.071l3.813-10.915c-.523-1.622-.971-2.9-1.342-3.836a12.734 12.734 0 00-1.075-2.176 3.135 3.135 0 00-1.082-1.052 5.256 5.256 0 00-1.373-.452V.538c1.741.156 3.459.234 5.154.234.988 0 1.977 0 2.981-.078l2.981-.156v.936l-.988.1a4.267 4.267 0 00-1.059.25 2.36 2.36 0 00-.848.57 1.447 1.447 0 00-.353 1.037c.06.497.168.988.322 1.465.212.78.479 1.7.785 2.784.306 1.084.698 2.245 1.114 3.477l1.2 3.626c.384 1.17.785 2.23 1.098 3.188.314.96.589 1.677.785 2.168l.69-1.817 1.075-2.9c.4-1.076.785-2.23 1.24-3.439.455-1.208.784-2.338 1.161-3.446.376-1.107.643-2.05.871-2.892a8.442 8.442 0 00.329-1.825 1.914 1.914 0 00-.298-1.13 2.216 2.216 0 00-.785-.686 3.636 3.636 0 00-.949-.374 7.536 7.536 0 00-.918-.156V.538l2.205.156c.714.054 1.451.078 2.204.078.753 0 1.358 0 2.032-.078l2.032-.156v.936a5.125 5.125 0 00-1.412.374 3.23 3.23 0 00-.988.686 4.916 4.916 0 00-.785.998c-.257.435-.488.886-.69 1.349a76.85 76.85 0 00-.989 2.339 203.533 203.533 0 00-1.412 3.578l-1.624 4.257c-.57 1.508-1.125 2.981-1.663 4.421a145.695 145.695 0 00-1.459 4.07c-.448 1.27-.785 2.34-1.099 3.119h-1.232l-5.225-15.921a165.29 165.29 0 01-2.918 7.976 323.709 323.709 0 00-3.052 8.03h-1.059l-6.88-21.285a25.63 25.63 0 00-.534-1.559 5.037 5.037 0 00-.69-1.232 3.023 3.023 0 00-.989-.842 3.516 3.516 0 00-1.459-.35V.545zM268.985 0c1.87-.022 3.73.287 5.491.912a12.404 12.404 0 014.292 2.643 11.694 11.694 0 012.785 4.25 16.88 16.88 0 010 11.383 11.693 11.693 0 01-2.785 4.249 12.268 12.268 0 01-4.292 2.635 16.848 16.848 0 01-10.983 0 12.264 12.264 0 01-4.291-2.635 11.68 11.68 0 01-2.785-4.25 16.88 16.88 0 010-11.382 11.68 11.68 0 012.785-4.25 12.39 12.39 0 014.291-2.643A15.874 15.874 0 01268.985 0zm0 1.403a7.148 7.148 0 00-3.797.983 7.88 7.88 0 00-2.644 2.658 12.5 12.5 0 00-1.569 3.852 21.545 21.545 0 000 9.177 12.412 12.412 0 001.569 3.898 7.88 7.88 0 002.644 2.659 7.824 7.824 0 007.594 0 7.899 7.899 0 002.644-2.659 12.436 12.436 0 001.569-3.898 21.545 21.545 0 000-9.177 12.525 12.525 0 00-1.569-3.852 7.899 7.899 0 00-2.644-2.658 7.15 7.15 0 00-3.797-.983zm17.299-.779c.87.054 1.718.093 2.557.117.84.023 1.781.039 2.84.039 1.271 0 2.542-.04 3.813-.117a65.365 65.365 0 013.993-.117 8.865 8.865 0 013.303.585c.935.368 1.786.92 2.503 1.621a7.222 7.222 0 011.569 2.41c.367.947.551 1.955.541 2.97a6.619 6.619 0 01-.4 2.41 5.692 5.692 0 01-1.114 1.8 6.092 6.092 0 01-1.663 1.271 8.809 8.809 0 01-2.079.78 95.909 95.909 0 001.836 3.118 36.347 36.347 0 002.416 3.524 19.988 19.988 0 002.84 2.994 6.93 6.93 0 003.138 1.607v.701a45.207 45.207 0 00-1.993-.117 55.128 55.128 0 00-1.992-.039c-.683 0-1.177 0-1.765.04-.589.038-1.177.062-1.766.116a56.917 56.917 0 01-7.555-11.46 17.6 17.6 0 01-1.357-.243 2.644 2.644 0 01-1.153-.467v6.775a19.83 19.83 0 00.094 2.152c.027.463.185.908.455 1.286a2.07 2.07 0 001.075.686c.636.173 1.288.285 1.945.336v.935a61.673 61.673 0 00-2.698-.117 124.59 124.59 0 00-2.989-.039c-1.013 0-2.15 0-3.209.04-1.059.038-2.118.062-3.177.116v-.935a11.902 11.902 0 002.063-.336 2.107 2.107 0 001.129-.686c.276-.377.441-.822.479-1.286a17.58 17.58 0 00.102-2.152V6.097a16.231 16.231 0 00-.102-1.996 3.106 3.106 0 00-.479-1.364 2.348 2.348 0 00-1.129-.842 7.813 7.813 0 00-2.063-.414l-.008-.857zm8.504 12.092a5.093 5.093 0 002.354.585 5.044 5.044 0 003.757-1.45 5.747 5.747 0 001.428-4.226 6.974 6.974 0 00-.337-2.206 5.24 5.24 0 00-.965-1.801 4.506 4.506 0 00-1.522-1.193 4.432 4.432 0 00-1.977-.437c-.459.002-.917.028-1.373.078-.474.06-.938.18-1.381.359l.016 10.291zm22.179-7.438a4.933 4.933 0 00-.267-1.762 2.703 2.703 0 00-.745-1.076 3.147 3.147 0 00-1.146-.623c-.493-.157-1-.27-1.514-.336V.546c2.11.156 4.244.234 6.386.234 2.142 0 4.339-.078 6.527-.234v.935c-.547.08-1.089.192-1.623.336-.512.13-1 .34-1.444.623-.437.272-.804.64-1.075 1.076a3.39 3.39 0 00-.4 1.762v19.328a5.7 5.7 0 001.373.219 29.05 29.05 0 001.906.054c1.168.02 2.333-.124 3.46-.428a8.046 8.046 0 002.683-1.35 10.208 10.208 0 002.158-2.338 23.79 23.79 0 001.836-3.267l.878.429a42.957 42.957 0 00-1.569 4.132 50.03 50.03 0 00-1.185 4.28 299.288 299.288 0 00-9.775-.156c-1.694 0-3.394.013-5.099.04-1.711 0-3.405.062-5.108.116v-.935c.462-.002.923-.028 1.381-.078a3.281 3.281 0 001.201-.375 2.19 2.19 0 00.847-.842 2.97 2.97 0 00.322-1.489l-.008-17.34zM338.18 25.27a9.855 9.855 0 002.009-.352 2.085 2.085 0 001.114-.78 2.81 2.81 0 00.478-1.348c.081-.723.118-1.449.11-2.175V5.98a17.636 17.636 0 00-.11-2.167 2.811 2.811 0 00-.478-1.35 2.066 2.066 0 00-1.13-.779 10.386 10.386 0 00-2.063-.35V.397l2.244.234a21.35 21.35 0 002.236.116c1.467 0 2.981-.062 4.558-.194 1.577-.133 3.444-.195 5.609-.195 1.636.003 3.257.301 4.786.88a12.413 12.413 0 014.252 2.636 13.36 13.36 0 013.044 4.366A14.68 14.68 0 01366 14.283a13.717 13.717 0 01-1.004 5.457 10.515 10.515 0 01-2.723 3.797 11.157 11.157 0 01-3.922 2.207 15.31 15.31 0 01-4.747.725c-.965 0-1.804 0-2.502-.04-.699-.038-1.412-.054-2.103-.093l-2.212-.117c-.785 0-1.711-.062-2.817-.062-1.247 0-2.353 0-3.248.039-.894.039-1.757.062-2.51.117l-.032-1.045zm8.434-2.106a1.135 1.135 0 00.432.912 3.24 3.24 0 001.122.608 7.755 7.755 0 001.647.336c.649.063 1.301.095 1.954.093a10.106 10.106 0 003.781-.678 7.58 7.58 0 002.895-2.074 9.464 9.464 0 001.836-3.509c.451-1.616.665-3.289.635-4.966a16.057 16.057 0 00-.69-4.834 11.33 11.33 0 00-1.993-3.828 9.053 9.053 0 00-3.193-2.526 9.866 9.866 0 00-4.291-.905c-.696 0-1.391.053-2.079.156-.696.11-1.383.27-2.056.476v20.739z" fill="#AC9233"/></svg>